<svg xmlns="http://www.w3.org/2000/svg" xmlns:xlink="http://www.w3.org/1999/xlink" version="1.1" viewBox="17.12 55.21 125.75 46.07">
<defs>
<clipPath id="clip1">
  <path d="M 21.121094 59.210938 L 138.875 59.210938 L 138.875 97.28125 L 21.121094 97.28125 Z M 21.121094 59.210938 "/>
</clipPath>
<clipPath id="clip2">
  <path d="M 107.519531 67 L 127 67 L 127 89 L 107.519531 89 Z M 107.519531 67 "/>
</clipPath>
<clipPath id="clip3">
  <path d="M 96 67 L 115.625 67 L 115.625 89 L 96 89 Z M 96 67 "/>
</clipPath>
<clipPath id="clip4">
  <path d="M 84.683594 67.414062 L 104 67.414062 L 104 88.746094 L 84.683594 88.746094 Z M 84.683594 67.414062 "/>
</clipPath>
<clipPath id="clip5">
  <path d="M 77.414062 67.414062 L 88.984375 67.414062 L 88.984375 88.746094 L 77.414062 88.746094 Z M 77.414062 67.414062 "/>
</clipPath>
<clipPath id="clip6">
  <path d="M 85.875 78.183594 L 90.554688 78.183594 L 90.554688 87.304688 L 85.875 87.304688 Z M 85.875 78.183594 "/>
</clipPath>
<clipPath id="clip7">
  <path d="M 83.199219 68.265625 L 92.585938 68.265625 L 92.585938 87 L 83.199219 87 Z M 83.199219 68.265625 "/>
</clipPath>
<clipPath id="clip8">
  <path d="M 79.273438 70.816406 L 91.640625 66.429688 L 97.316406 82.410156 L 84.949219 86.800781 Z M 79.273438 70.816406 "/>
</clipPath>
<clipPath id="clip9">
  <path d="M 79.273438 70.816406 L 91.640625 66.429688 L 97.316406 82.410156 L 84.949219 86.800781 Z M 79.273438 70.816406 "/>
</clipPath>
<clipPath id="clip10">
  <path d="M 51.867188 91.523438 L 108.132812 91.523438 L 108.132812 100.789062 L 51.867188 100.789062 Z M 51.867188 91.523438 "/>
</clipPath>
<clipPath id="clip11">
  <path d="M 64 67.414062 L 83.457031 67.414062 L 83.457031 88.746094 L 64 88.746094 Z M 64 67.414062 "/>
</clipPath>
<clipPath id="clip12">
  <path d="M 48.640625 67 L 68 67 L 68 89 L 48.640625 89 Z M 48.640625 67 "/>
</clipPath>
<clipPath id="clip13">
  <path d="M 33.28125 67 L 52.90625 67 L 52.90625 89 L 33.28125 89 Z M 33.28125 67 "/>
</clipPath>
</defs>
<g id="surface1">
<g clip-path="url(#clip1)" clip-rule="nonzero">
<path style="fill:none;stroke-width:8;stroke-linecap:butt;stroke-linejoin:miter;stroke:rgb(100%,100%,100%);stroke-opacity:1;stroke-miterlimit:4;" d="M 0.00308228 0.0018514 L 367.984039 0.0018514 L 367.984039 118.971578 L 0.00308228 118.971578 Z M 0.00308228 0.0018514 " transform="matrix(0.32,0,0,0.32,21.120107,59.210345)"/>
</g>
<g clip-path="url(#clip2)" clip-rule="nonzero">
<path style=" stroke:none;fill-rule:nonzero;fill:rgb(13.333334%,13.333334%,13.333334%);fill-opacity:1;" d="M 126.550781 82.339844 L 126.550781 83.976562 C 126.550781 84.125 126.554688 84.351562 126.5625 84.65625 C 126.574219 84.964844 126.589844 85.296875 126.609375 85.65625 C 126.628906 86.03125 126.644531 86.347656 126.652344 86.613281 L 126.667969 87.019531 L 126.667969 87.042969 C 126.667969 87.429688 126.539062 87.753906 126.28125 88.011719 C 126.023438 88.265625 125.703125 88.398438 125.316406 88.398438 L 109.210938 88.398438 C 108.75 88.398438 108.375 88.242188 108.089844 87.933594 C 107.804688 87.628906 107.679688 87.246094 107.710938 86.785156 L 108.824219 86.863281 L 107.707031 86.820312 C 107.769531 85.34375 107.800781 83.863281 107.8125 82.378906 L 107.855469 77.863281 C 107.875 76.375 107.933594 74.878906 108.023438 73.371094 C 108.105469 71.960938 108.046875 70.558594 107.839844 69.167969 C 107.761719 68.710938 107.882812 68.304688 108.199219 67.949219 C 108.5 67.609375 108.875 67.441406 109.332031 67.441406 L 125.195312 67.441406 C 125.503906 67.441406 125.773438 67.53125 126.011719 67.707031 C 126.238281 67.878906 126.398438 68.105469 126.492188 68.382812 L 126.550781 68.554688 L 126.550781 68.738281 C 126.550781 68.777344 126.542969 68.890625 126.535156 69.074219 C 126.523438 69.253906 126.503906 69.4375 126.480469 69.617188 L 125.375 69.480469 L 126.488281 69.480469 C 126.488281 69.601562 126.480469 69.847656 126.457031 70.226562 C 126.441406 70.574219 126.425781 70.933594 126.414062 71.308594 C 126.40625 71.6875 126.402344 71.96875 126.402344 72.160156 C 126.402344 72.332031 126.410156 72.550781 126.429688 72.8125 C 126.445312 73.078125 126.46875 73.3125 126.496094 73.519531 L 126.550781 73.933594 L 126.550781 74.003906 C 126.550781 74.417969 126.402344 74.753906 126.109375 75.015625 C 125.851562 75.246094 125.539062 75.359375 125.164062 75.359375 L 125.152344 75.359375 L 124.558594 75.34375 C 124.179688 75.332031 123.699219 75.328125 123.113281 75.328125 L 121.222656 75.328125 C 120.570312 75.328125 119.96875 75.339844 119.414062 75.359375 C 118.882812 75.378906 118.476562 75.402344 118.191406 75.441406 C 118.007812 75.464844 117.8125 75.523438 117.601562 75.617188 C 117.636719 75.601562 117.667969 75.574219 117.695312 75.53125 C 117.710938 75.507812 117.722656 75.488281 117.730469 75.46875 C 117.746094 75.308594 117.703125 75.179688 117.59375 75.082031 C 117.660156 75.144531 117.726562 75.1875 117.789062 75.21875 L 117.335938 76.238281 L 117.558594 75.140625 C 117.597656 75.152344 117.851562 75.164062 118.316406 75.183594 C 118.828125 75.199219 119.445312 75.210938 120.164062 75.210938 C 120.894531 75.210938 121.628906 75.207031 122.367188 75.195312 C 123.117188 75.183594 123.75 75.179688 124.273438 75.179688 L 125.164062 75.179688 C 125.539062 75.179688 125.851562 75.292969 126.109375 75.523438 C 126.402344 75.785156 126.550781 76.121094 126.550781 76.535156 L 126.550781 80.078125 C 126.550781 80.492188 126.402344 80.828125 126.109375 81.089844 C 125.851562 81.316406 125.539062 81.433594 125.164062 81.433594 C 124.820312 81.433594 124.34375 81.425781 123.734375 81.417969 C 123.125 81.40625 122.492188 81.390625 121.839844 81.371094 C 121.203125 81.351562 120.625 81.335938 120.113281 81.328125 C 119.605469 81.316406 119.265625 81.3125 119.09375 81.3125 L 119.09375 80.195312 L 119.207031 81.308594 C 118.96875 81.332031 118.6875 81.34375 118.363281 81.34375 C 118.1875 81.34375 118.023438 81.367188 117.875 81.414062 C 117.921875 81.398438 117.957031 81.367188 117.976562 81.320312 C 117.964844 81.34375 117.957031 81.359375 117.957031 81.367188 C 117.957031 81.367188 117.957031 81.363281 117.957031 81.355469 C 117.964844 81.320312 117.96875 81.28125 117.964844 81.230469 C 117.953125 81.113281 117.914062 81.023438 117.84375 80.953125 C 117.957031 81.066406 118.078125 81.136719 118.203125 81.167969 L 117.933594 82.25 L 118.152344 81.15625 C 118.277344 81.179688 118.613281 81.195312 119.152344 81.195312 C 119.753906 81.195312 120.441406 81.179688 121.207031 81.148438 L 123.46875 81.058594 C 124.1875 81.03125 124.734375 81.003906 125.105469 80.988281 L 125.136719 80.984375 L 125.164062 80.984375 C 125.539062 80.984375 125.851562 81.097656 126.109375 81.328125 C 126.402344 81.589844 126.550781 81.925781 126.550781 82.339844 Z M 124.316406 82.339844 C 124.316406 82.59375 124.421875 82.8125 124.625 82.996094 C 124.792969 83.144531 124.972656 83.21875 125.164062 83.21875 L 125.164062 82.101562 L 125.226562 83.214844 C 124.84375 83.234375 124.285156 83.261719 123.558594 83.289062 L 121.292969 83.378906 C 120.496094 83.410156 119.78125 83.425781 119.152344 83.425781 C 118.464844 83.425781 117.984375 83.398438 117.714844 83.34375 L 117.6875 83.339844 L 117.660156 83.332031 C 117.152344 83.207031 116.695312 82.949219 116.296875 82.5625 C 115.96875 82.25 115.785156 81.875 115.742188 81.445312 C 115.707031 81.066406 115.785156 80.695312 115.980469 80.320312 C 116.242188 79.796875 116.65625 79.449219 117.214844 79.277344 C 117.582031 79.164062 117.964844 79.109375 118.363281 79.109375 C 118.613281 79.109375 118.820312 79.101562 118.980469 79.085938 L 119.039062 79.082031 L 119.09375 79.082031 C 119.277344 79.082031 119.632812 79.085938 120.15625 79.09375 C 120.675781 79.105469 121.261719 79.121094 121.910156 79.140625 C 122.550781 79.160156 123.171875 79.171875 123.769531 79.183594 C 124.367188 79.195312 124.835938 79.199219 125.164062 79.199219 C 124.972656 79.199219 124.792969 79.273438 124.625 79.421875 C 124.421875 79.605469 124.316406 79.820312 124.316406 80.078125 L 124.316406 76.535156 C 124.316406 76.789062 124.421875 77.007812 124.625 77.191406 C 124.792969 77.339844 124.972656 77.414062 125.164062 77.414062 L 124.273438 77.414062 C 123.761719 77.414062 123.136719 77.417969 122.398438 77.425781 C 121.648438 77.4375 120.902344 77.441406 120.164062 77.441406 C 119.417969 77.441406 118.773438 77.433594 118.234375 77.414062 C 117.648438 77.390625 117.277344 77.363281 117.117188 77.332031 L 116.996094 77.308594 L 116.882812 77.257812 C 116.589844 77.128906 116.320312 76.945312 116.070312 76.707031 C 115.644531 76.3125 115.457031 75.816406 115.511719 75.21875 C 115.554688 74.855469 115.671875 74.53125 115.867188 74.25 C 116.070312 73.957031 116.34375 73.738281 116.683594 73.582031 C 117.089844 73.398438 117.5 73.277344 117.914062 73.226562 C 118.261719 73.179688 118.738281 73.148438 119.335938 73.128906 C 119.914062 73.105469 120.542969 73.097656 121.222656 73.097656 L 123.113281 73.097656 C 123.714844 73.097656 124.214844 73.101562 124.613281 73.113281 L 125.195312 73.128906 L 125.164062 74.242188 L 125.164062 73.128906 C 124.972656 73.128906 124.792969 73.199219 124.625 73.347656 C 124.421875 73.53125 124.316406 73.75 124.316406 74.003906 L 125.433594 74.003906 L 124.328125 74.148438 L 124.28125 73.808594 C 124.25 73.558594 124.222656 73.277344 124.199219 72.964844 C 124.179688 72.652344 124.167969 72.382812 124.167969 72.160156 C 124.167969 71.953125 124.171875 71.648438 124.183594 71.253906 C 124.195312 70.855469 124.210938 70.472656 124.230469 70.105469 C 124.25 69.765625 124.257812 69.558594 124.257812 69.480469 L 124.257812 69.410156 L 124.265625 69.34375 C 124.285156 69.207031 124.296875 69.070312 124.304688 68.933594 C 124.308594 68.855469 124.3125 68.796875 124.316406 68.753906 C 124.316406 68.738281 124.316406 68.722656 124.316406 68.714844 C 124.320312 68.710938 124.320312 68.710938 124.320312 68.710938 C 124.316406 68.71875 124.316406 68.726562 124.316406 68.738281 L 125.433594 68.738281 L 124.375 69.089844 C 124.429688 69.25 124.527344 69.386719 124.675781 69.496094 C 124.832031 69.613281 125.007812 69.671875 125.195312 69.671875 L 109.332031 69.671875 C 109.546875 69.671875 109.726562 69.59375 109.867188 69.433594 C 110.023438 69.257812 110.082031 69.058594 110.046875 68.839844 C 110.277344 70.386719 110.34375 71.941406 110.25 73.503906 C 110.164062 74.976562 110.109375 76.4375 110.089844 77.886719 L 110.046875 82.390625 C 110.035156 83.902344 110 85.40625 109.941406 86.910156 L 109.9375 86.925781 L 109.9375 86.945312 C 109.941406 86.890625 109.933594 86.832031 109.917969 86.765625 C 109.882812 86.632812 109.820312 86.519531 109.722656 86.417969 C 109.628906 86.3125 109.519531 86.242188 109.390625 86.199219 C 109.324219 86.175781 109.265625 86.164062 109.210938 86.164062 L 125.316406 86.164062 C 125.085938 86.164062 124.882812 86.253906 124.703125 86.433594 C 124.523438 86.609375 124.4375 86.8125 124.4375 87.042969 L 125.554688 87.042969 L 124.4375 87.085938 L 124.421875 86.699219 C 124.414062 86.445312 124.398438 86.140625 124.378906 85.777344 C 124.359375 85.402344 124.34375 85.050781 124.332031 84.726562 C 124.320312 84.398438 124.316406 84.148438 124.316406 83.976562 Z M 124.316406 82.339844 "/>
</g>
<path style=" stroke:none;fill-rule:nonzero;fill:rgb(100%,100%,100%);fill-opacity:1;" d="M 125.433594 82.339844 C 125.433594 82.597656 125.433594 82.878906 125.433594 83.1875 C 125.433594 83.492188 125.433594 83.757812 125.433594 83.972656 C 125.433594 84.132812 125.4375 84.375 125.445312 84.695312 C 125.460938 85.011719 125.476562 85.351562 125.492188 85.71875 C 125.511719 86.085938 125.523438 86.398438 125.535156 86.652344 C 125.546875 86.914062 125.554688 87.039062 125.554688 87.039062 C 125.554688 87.199219 125.472656 87.28125 125.3125 87.28125 L 109.214844 87.28125 C 108.933594 87.28125 108.804688 87.140625 108.828125 86.859375 C 108.882812 85.378906 108.917969 83.886719 108.925781 82.386719 C 108.933594 80.886719 108.949219 79.378906 108.972656 77.875 C 108.988281 76.40625 109.042969 74.929688 109.132812 73.441406 C 109.226562 71.953125 109.160156 70.472656 108.941406 69 C 108.921875 68.886719 108.953125 68.785156 109.035156 68.695312 C 109.113281 68.605469 109.214844 68.558594 109.332031 68.558594 L 125.195312 68.558594 C 125.3125 68.558594 125.394531 68.617188 125.433594 68.734375 C 125.433594 68.757812 125.429688 68.847656 125.421875 69.007812 C 125.410156 69.164062 125.394531 69.320312 125.375 69.480469 C 125.375 69.578125 125.363281 69.808594 125.339844 70.167969 C 125.320312 70.523438 125.308594 70.894531 125.300781 71.28125 C 125.289062 71.667969 125.285156 71.960938 125.285156 72.160156 C 125.285156 72.355469 125.296875 72.597656 125.3125 72.886719 C 125.335938 73.175781 125.359375 73.4375 125.386719 73.667969 C 125.417969 73.894531 125.433594 74.007812 125.433594 74.007812 C 125.433594 74.164062 125.34375 74.242188 125.167969 74.242188 C 125.167969 74.242188 124.972656 74.238281 124.585938 74.226562 C 124.199219 74.21875 123.707031 74.214844 123.113281 74.214844 C 122.515625 74.214844 121.886719 74.214844 121.21875 74.214844 C 120.558594 74.214844 119.941406 74.226562 119.375 74.246094 C 118.808594 74.265625 118.367188 74.292969 118.054688 74.332031 C 117.753906 74.375 117.449219 74.464844 117.140625 74.601562 C 116.832031 74.738281 116.660156 74.988281 116.621094 75.347656 C 116.601562 75.566406 116.671875 75.75 116.828125 75.902344 C 116.988281 76.046875 117.15625 76.160156 117.339844 76.234375 C 117.4375 76.257812 117.75 76.277344 118.273438 76.300781 C 118.800781 76.320312 119.433594 76.328125 120.167969 76.328125 C 120.898438 76.328125 121.636719 76.324219 122.378906 76.3125 C 123.125 76.300781 123.757812 76.292969 124.273438 76.292969 C 124.789062 76.292969 125.085938 76.292969 125.167969 76.292969 C 125.34375 76.292969 125.433594 76.375 125.433594 76.535156 L 125.433594 79.007812 C 125.433594 79.226562 125.433594 79.414062 125.433594 79.574219 C 125.433594 79.730469 125.433594 79.898438 125.433594 80.074219 C 125.433594 80.234375 125.34375 80.3125 125.167969 80.3125 C 124.828125 80.3125 124.355469 80.308594 123.753906 80.300781 C 123.148438 80.292969 122.523438 80.277344 121.875 80.261719 C 121.226562 80.238281 120.648438 80.222656 120.132812 80.214844 C 119.617188 80.199219 119.269531 80.195312 119.09375 80.195312 C 118.894531 80.21875 118.648438 80.226562 118.359375 80.226562 C 118.074219 80.226562 117.804688 80.265625 117.546875 80.347656 C 117.289062 80.425781 117.101562 80.585938 116.980469 80.820312 C 116.78125 81.199219 116.808594 81.511719 117.066406 81.761719 C 117.324219 82.011719 117.613281 82.171875 117.933594 82.246094 C 118.132812 82.289062 118.539062 82.308594 119.152344 82.308594 C 119.765625 82.308594 120.464844 82.292969 121.246094 82.265625 C 122.035156 82.238281 122.789062 82.207031 123.511719 82.179688 C 124.238281 82.152344 124.789062 82.125 125.167969 82.101562 C 125.34375 82.101562 125.433594 82.179688 125.433594 82.339844 Z M 125.433594 82.339844 "/>
<g clip-path="url(#clip3)" clip-rule="nonzero">
<path style=" stroke:none;fill-rule:nonzero;fill:rgb(13.333334%,13.333334%,13.333334%);fill-opacity:1;" d="M 114.667969 67.769531 C 114.773438 67.875 114.863281 68 114.9375 68.148438 L 115.027344 68.332031 L 115.050781 68.535156 C 115.09375 68.984375 115.109375 69.367188 115.097656 69.683594 C 115.089844 69.960938 115.074219 70.269531 115.054688 70.605469 C 115.035156 70.910156 115.023438 71.378906 115.023438 72.011719 C 115.023438 72.21875 115.042969 72.53125 115.078125 72.957031 L 115.171875 74.046875 L 115.171875 74.09375 C 115.171875 74.492188 115.042969 74.820312 114.78125 75.082031 C 114.519531 75.347656 114.1875 75.480469 113.789062 75.480469 L 113.773438 75.480469 L 113.757812 75.476562 C 113.070312 75.457031 112.289062 75.421875 111.40625 75.371094 L 108.953125 75.238281 C 108.207031 75.199219 107.679688 75.179688 107.359375 75.179688 L 107.359375 74.0625 L 107.390625 75.179688 C 106.714844 75.199219 106.128906 75.253906 105.640625 75.339844 C 105.578125 75.351562 105.53125 75.367188 105.496094 75.378906 C 105.503906 75.375 105.519531 75.363281 105.542969 75.34375 C 105.671875 75.234375 105.738281 75.097656 105.738281 74.925781 C 105.738281 74.957031 105.738281 74.980469 105.742188 74.992188 C 105.738281 74.972656 105.730469 74.949219 105.714844 74.917969 C 105.640625 74.753906 105.511719 74.640625 105.332031 74.570312 C 105.457031 74.617188 105.554688 74.644531 105.625 74.652344 L 105.65625 74.65625 L 105.6875 74.664062 C 106.125 74.742188 106.472656 74.773438 106.730469 74.753906 C 107.144531 74.71875 107.695312 74.722656 108.382812 74.765625 C 109.09375 74.808594 109.796875 74.90625 110.488281 75.058594 C 111.300781 75.234375 112.027344 75.59375 112.660156 76.128906 C 112.984375 76.402344 113.324219 76.742188 113.683594 77.148438 C 114.117188 77.628906 114.46875 78.292969 114.746094 79.132812 C 115.011719 79.941406 115.144531 81.039062 115.144531 82.429688 C 115.144531 82.796875 115.070312 83.289062 114.921875 83.910156 C 114.761719 84.570312 114.457031 85.242188 114.011719 85.925781 L 114 85.9375 L 113.992188 85.953125 C 113.75 86.304688 113.382812 86.667969 112.898438 87.046875 C 112.394531 87.433594 111.835938 87.730469 111.214844 87.925781 C 110.453125 88.15625 109.695312 88.285156 108.941406 88.308594 C 108.277344 88.328125 107.789062 88.335938 107.480469 88.335938 C 107.40625 88.335938 107.121094 88.34375 106.625 88.351562 C 106.109375 88.363281 105.476562 88.367188 104.726562 88.367188 C 103.988281 88.367188 103.210938 88.371094 102.402344 88.382812 C 101.585938 88.390625 100.8125 88.398438 100.082031 88.398438 L 97.65625 88.398438 C 97.285156 88.398438 96.96875 88.28125 96.714844 88.054688 C 96.421875 87.792969 96.273438 87.457031 96.273438 87.042969 C 96.273438 86.789062 96.277344 86.535156 96.289062 86.28125 C 96.296875 86.027344 96.316406 85.773438 96.335938 85.519531 C 96.375 84.96875 96.386719 84.40625 96.375 83.832031 C 96.367188 83.21875 96.363281 82.613281 96.363281 82.011719 C 96.363281 81.589844 96.507812 81.246094 96.804688 80.984375 C 97.09375 80.722656 97.453125 80.617188 97.871094 80.664062 C 98.039062 80.679688 98.261719 80.6875 98.535156 80.6875 C 98.855469 80.6875 99.152344 80.691406 99.425781 80.703125 C 99.671875 80.710938 99.824219 80.71875 99.890625 80.71875 L 99.964844 80.71875 C 100.242188 80.738281 100.632812 80.753906 101.132812 80.761719 C 101.625 80.773438 102.152344 80.765625 102.707031 80.746094 C 103.265625 80.730469 103.792969 80.699219 104.28125 80.660156 C 104.714844 80.628906 105.03125 80.582031 105.238281 80.523438 L 105.285156 80.507812 C 105.292969 80.507812 105.296875 80.507812 105.296875 80.507812 C 105.289062 80.507812 105.28125 80.511719 105.273438 80.519531 C 105.234375 80.539062 105.199219 80.570312 105.167969 80.605469 C 105.113281 80.671875 105.085938 80.722656 105.085938 80.769531 L 105.085938 80.730469 C 105.074219 80.878906 105.117188 81.019531 105.214844 81.160156 C 105.292969 81.269531 105.378906 81.34375 105.480469 81.378906 C 105.351562 81.335938 105.175781 81.3125 104.949219 81.3125 C 104.625 81.3125 104.296875 81.324219 103.96875 81.355469 C 103.582031 81.386719 103.273438 81.402344 103.046875 81.402344 L 103.046875 80.285156 L 103.113281 81.398438 C 102.402344 81.445312 101.703125 81.414062 101.023438 81.316406 C 100.25 81.203125 99.527344 80.921875 98.851562 80.46875 C 98.355469 80.144531 97.910156 79.730469 97.523438 79.21875 C 97.148438 78.722656 96.863281 78.203125 96.667969 77.660156 C 96.273438 76.617188 96.128906 75.523438 96.234375 74.378906 C 96.332031 73.28125 96.609375 72.238281 97.058594 71.25 C 97.339844 70.636719 97.695312 70.082031 98.117188 69.585938 C 98.578125 69.050781 99.125 68.628906 99.761719 68.324219 C 100.214844 68.109375 100.683594 67.914062 101.167969 67.742188 C 101.734375 67.542969 102.308594 67.441406 102.894531 67.441406 L 114.339844 67.441406 Z M 113.089844 69.347656 L 113.878906 68.558594 L 113.878906 69.671875 L 102.894531 69.671875 C 102.570312 69.671875 102.238281 69.730469 101.914062 69.847656 C 101.503906 69.992188 101.109375 70.15625 100.730469 70.339844 C 100.375 70.507812 100.070312 70.742188 99.8125 71.039062 C 99.523438 71.378906 99.285156 71.757812 99.089844 72.175781 C 98.746094 72.933594 98.535156 73.734375 98.457031 74.582031 C 98.382812 75.386719 98.484375 76.15625 98.765625 76.898438 C 98.886719 77.230469 99.066406 77.554688 99.308594 77.871094 C 99.535156 78.171875 99.796875 78.421875 100.089844 78.613281 C 100.488281 78.878906 100.90625 79.042969 101.347656 79.105469 C 101.875 79.183594 102.417969 79.207031 102.976562 79.171875 L 103.011719 79.167969 L 103.046875 79.167969 C 103.210938 79.167969 103.457031 79.15625 103.785156 79.128906 C 104.171875 79.09375 104.5625 79.082031 104.949219 79.082031 C 105.4375 79.082031 105.863281 79.148438 106.234375 79.28125 C 106.582031 79.40625 106.851562 79.605469 107.046875 79.882812 C 107.253906 80.183594 107.34375 80.527344 107.3125 80.914062 L 106.199219 80.820312 L 107.316406 80.875 C 107.292969 81.335938 107.144531 81.726562 106.875 82.046875 C 106.605469 82.363281 106.25 82.574219 105.804688 82.679688 L 105.546875 81.59375 L 105.851562 82.667969 C 105.5 82.769531 105.035156 82.839844 104.457031 82.886719 C 103.933594 82.925781 103.375 82.957031 102.785156 82.980469 C 102.191406 83 101.625 83.003906 101.089844 82.992188 C 100.554688 82.984375 100.128906 82.96875 99.816406 82.945312 L 99.890625 81.832031 L 99.890625 82.949219 C 99.796875 82.949219 99.613281 82.945312 99.339844 82.933594 C 99.097656 82.921875 98.828125 82.921875 98.535156 82.921875 C 98.195312 82.921875 97.890625 82.90625 97.625 82.882812 C 97.863281 82.910156 98.082031 82.832031 98.285156 82.652344 C 98.492188 82.46875 98.59375 82.257812 98.59375 82.011719 C 98.59375 82.601562 98.601562 83.195312 98.609375 83.792969 C 98.621094 84.429688 98.601562 85.066406 98.5625 85.707031 C 98.542969 85.929688 98.527344 86.152344 98.519531 86.375 C 98.511719 86.597656 98.503906 86.820312 98.503906 87.042969 C 98.503906 86.789062 98.402344 86.570312 98.199219 86.386719 C 98.03125 86.238281 97.851562 86.164062 97.65625 86.164062 L 100.082031 86.164062 C 100.800781 86.164062 101.566406 86.160156 102.375 86.148438 C 103.195312 86.140625 103.976562 86.132812 104.726562 86.132812 C 105.464844 86.132812 106.082031 86.128906 106.578125 86.121094 C 107.09375 86.109375 107.394531 86.105469 107.480469 86.105469 C 107.765625 86.105469 108.230469 86.09375 108.875 86.074219 C 109.429688 86.058594 109.984375 85.96875 110.535156 85.800781 C 110.902344 85.683594 111.234375 85.507812 111.527344 85.28125 C 111.835938 85.042969 112.046875 84.84375 112.160156 84.679688 L 113.074219 85.316406 L 112.140625 84.703125 C 112.449219 84.238281 112.648438 83.796875 112.75 83.386719 C 112.859375 82.9375 112.910156 82.617188 112.910156 82.429688 C 112.910156 81.277344 112.816406 80.414062 112.625 79.832031 C 112.445312 79.285156 112.242188 78.882812 112.019531 78.632812 C 111.726562 78.300781 111.460938 78.039062 111.226562 77.835938 C 110.871094 77.539062 110.464844 77.339844 110.011719 77.238281 C 109.429688 77.113281 108.839844 77.03125 108.242188 76.992188 C 107.660156 76.957031 107.21875 76.953125 106.917969 76.976562 C 106.460938 77.015625 105.914062 76.976562 105.28125 76.859375 L 105.484375 75.761719 L 105.347656 76.867188 C 105.097656 76.835938 104.828125 76.765625 104.535156 76.65625 C 104.148438 76.507812 103.863281 76.238281 103.683594 75.84375 C 103.566406 75.582031 103.503906 75.277344 103.503906 74.925781 C 103.503906 74.402344 103.707031 73.96875 104.109375 73.632812 C 104.398438 73.390625 104.773438 73.230469 105.242188 73.144531 C 105.84375 73.035156 106.539062 72.96875 107.328125 72.949219 L 107.359375 72.949219 C 107.714844 72.949219 108.289062 72.96875 109.074219 73.007812 L 111.53125 73.144531 C 112.394531 73.191406 113.160156 73.226562 113.824219 73.246094 L 113.789062 74.363281 L 113.789062 73.246094 C 113.570312 73.246094 113.375 73.332031 113.203125 73.503906 C 113.027344 73.679688 112.941406 73.875 112.941406 74.09375 L 114.058594 74.09375 L 112.945312 74.1875 L 112.855469 73.148438 C 112.8125 72.660156 112.792969 72.28125 112.792969 72.011719 C 112.792969 71.332031 112.804688 70.820312 112.824219 70.46875 C 112.84375 70.152344 112.859375 69.863281 112.867188 69.601562 C 112.875 69.386719 112.863281 69.105469 112.828125 68.757812 L 113.9375 68.648438 L 112.941406 69.144531 C 112.976562 69.214844 113.023438 69.28125 113.089844 69.347656 Z M 113.089844 69.347656 "/>
</g>
<path style=" stroke:none;fill-rule:nonzero;fill:rgb(100%,100%,100%);fill-opacity:1;" d="M 113.882812 68.558594 C 113.898438 68.578125 113.917969 68.605469 113.941406 68.648438 C 113.980469 69.042969 113.996094 69.378906 113.980469 69.648438 C 113.972656 69.914062 113.957031 70.210938 113.933594 70.539062 C 113.917969 70.867188 113.910156 71.355469 113.910156 72.007812 C 113.910156 72.246094 113.929688 72.597656 113.96875 73.054688 C 114.007812 73.507812 114.035156 73.855469 114.054688 74.09375 C 114.054688 74.273438 113.964844 74.359375 113.789062 74.359375 C 113.113281 74.34375 112.339844 74.308594 111.46875 74.261719 C 110.597656 74.207031 109.777344 74.164062 109.015625 74.128906 C 108.25 74.085938 107.699219 74.066406 107.363281 74.066406 C 106.628906 74.085938 105.988281 74.144531 105.441406 74.246094 C 104.894531 74.34375 104.621094 74.570312 104.621094 74.925781 C 104.621094 75.304688 104.726562 75.535156 104.933594 75.613281 C 105.144531 75.695312 105.328125 75.742188 105.488281 75.761719 C 106.023438 75.859375 106.464844 75.894531 106.820312 75.867188 C 107.183594 75.835938 107.679688 75.839844 108.316406 75.878906 C 108.96875 75.921875 109.613281 76.011719 110.25 76.148438 C 110.882812 76.285156 111.449219 76.5625 111.941406 76.980469 C 112.222656 77.21875 112.523438 77.527344 112.847656 77.894531 C 113.175781 78.257812 113.453125 78.789062 113.683594 79.480469 C 113.910156 80.171875 114.027344 81.15625 114.027344 82.425781 C 114.027344 82.707031 113.964844 83.117188 113.835938 83.652344 C 113.703125 84.1875 113.453125 84.742188 113.074219 85.3125 C 112.898438 85.570312 112.609375 85.855469 112.207031 86.167969 C 111.8125 86.472656 111.367188 86.707031 110.875 86.859375 C 110.214844 87.058594 109.5625 87.171875 108.910156 87.195312 C 108.253906 87.210938 107.777344 87.21875 107.480469 87.21875 C 107.402344 87.21875 107.109375 87.226562 106.601562 87.242188 C 106.09375 87.25 105.46875 87.253906 104.722656 87.253906 C 103.976562 87.253906 103.203125 87.257812 102.386719 87.265625 C 101.574219 87.277344 100.804688 87.28125 100.082031 87.28125 C 99.355469 87.28125 98.769531 87.28125 98.320312 87.28125 C 97.875 87.28125 97.65625 87.28125 97.65625 87.28125 C 97.476562 87.28125 97.386719 87.199219 97.386719 87.039062 C 97.386719 86.804688 97.390625 86.570312 97.402344 86.332031 C 97.414062 86.09375 97.429688 85.855469 97.449219 85.613281 C 97.488281 85.019531 97.5 84.417969 97.488281 83.8125 C 97.476562 83.210938 97.476562 82.609375 97.476562 82.015625 C 97.476562 81.835938 97.566406 81.757812 97.75 81.773438 C 97.964844 81.792969 98.226562 81.800781 98.535156 81.800781 C 98.839844 81.800781 99.125 81.808594 99.382812 81.820312 C 99.636719 81.832031 99.808594 81.832031 99.886719 81.832031 C 100.183594 81.851562 100.589844 81.867188 101.109375 81.878906 C 101.625 81.890625 102.167969 81.886719 102.742188 81.867188 C 103.320312 81.84375 103.863281 81.8125 104.367188 81.773438 C 104.875 81.734375 105.265625 81.671875 105.542969 81.59375 C 105.957031 81.496094 106.179688 81.238281 106.203125 80.820312 C 106.21875 80.585938 106.101562 80.421875 105.855469 80.332031 C 105.609375 80.242188 105.308594 80.195312 104.949219 80.195312 C 104.589844 80.195312 104.234375 80.210938 103.875 80.242188 C 103.519531 80.273438 103.242188 80.289062 103.042969 80.289062 C 102.410156 80.328125 101.789062 80.304688 101.183594 80.214844 C 100.578125 80.121094 100.007812 79.898438 99.476562 79.539062 C 99.074219 79.285156 98.722656 78.953125 98.414062 78.546875 C 98.109375 78.140625 97.875 77.71875 97.714844 77.28125 C 97.375 76.386719 97.25 75.453125 97.339844 74.480469 C 97.429688 73.507812 97.675781 72.585938 98.074219 71.714844 C 98.308594 71.199219 98.605469 70.730469 98.960938 70.3125 C 99.320312 69.898438 99.75 69.570312 100.25 69.332031 C 100.660156 69.132812 101.089844 68.957031 101.535156 68.800781 C 101.984375 68.640625 102.4375 68.558594 102.894531 68.558594 Z M 113.882812 68.558594 "/>
<g clip-path="url(#clip4)" clip-rule="nonzero">
<path style=" stroke:none;fill-rule:nonzero;fill:rgb(13.333334%,13.333334%,13.333334%);fill-opacity:1;" d="M 103.851562 73.933594 C 103.875 74.191406 103.882812 74.601562 103.875 75.15625 C 103.863281 75.6875 103.839844 76.21875 103.8125 76.75 C 103.777344 77.34375 103.71875 77.785156 103.640625 78.078125 L 102.5625 77.785156 L 103.660156 77.996094 C 103.546875 78.582031 103.363281 79.195312 103.109375 79.832031 C 102.828125 80.546875 102.375 81.222656 101.761719 81.863281 C 101.195312 82.449219 100.683594 82.882812 100.222656 83.160156 C 99.832031 83.398438 99.496094 83.589844 99.222656 83.738281 C 98.820312 83.964844 98.273438 84.15625 97.578125 84.308594 C 96.960938 84.445312 96.363281 84.546875 95.785156 84.621094 C 95.191406 84.695312 94.761719 84.734375 94.496094 84.734375 C 94.375 84.734375 94.289062 84.742188 94.242188 84.753906 C 94.332031 84.730469 94.421875 84.660156 94.503906 84.550781 C 94.523438 84.527344 94.535156 84.507812 94.542969 84.492188 C 94.539062 84.496094 94.535156 84.507812 94.53125 84.527344 C 94.507812 84.605469 94.488281 84.71875 94.476562 84.855469 L 94.472656 84.890625 L 94.46875 84.921875 C 94.4375 85.121094 94.421875 85.40625 94.421875 85.777344 L 94.421875 86.921875 C 94.421875 87.289062 94.324219 87.601562 94.132812 87.859375 C 93.863281 88.21875 93.5 88.398438 93.039062 88.398438 L 86.222656 88.398438 C 85.773438 88.398438 85.414062 88.234375 85.140625 87.90625 C 84.917969 87.640625 84.808594 87.3125 84.808594 86.921875 L 84.824219 86.183594 L 84.867188 84.421875 C 84.886719 83.730469 84.902344 83.050781 84.910156 82.382812 C 84.921875 81.714844 84.925781 81.164062 84.925781 80.730469 C 84.945312 79.066406 84.941406 77.402344 84.910156 75.734375 C 84.882812 74.050781 84.867188 72.363281 84.867188 70.671875 L 85.984375 70.671875 L 84.867188 70.707031 C 84.847656 70.039062 84.835938 69.371094 84.835938 68.707031 C 84.835938 68.308594 84.988281 67.984375 85.285156 67.738281 C 85.519531 67.539062 85.804688 67.441406 86.132812 67.441406 L 97.621094 67.441406 C 98.070312 67.441406 98.597656 67.515625 99.191406 67.667969 C 99.847656 67.835938 100.570312 68.222656 101.367188 68.832031 C 101.953125 69.289062 102.421875 69.84375 102.773438 70.5 C 103.089844 71.089844 103.332031 71.691406 103.503906 72.308594 C 103.667969 72.890625 103.78125 73.414062 103.847656 73.878906 Z M 101.628906 74.136719 L 102.742188 74.035156 L 101.636719 74.191406 C 101.582031 73.824219 101.488281 73.394531 101.351562 72.90625 C 101.226562 72.449219 101.046875 72 100.808594 71.558594 C 100.601562 71.179688 100.335938 70.863281 100.011719 70.605469 C 99.457031 70.183594 99 69.921875 98.640625 69.832031 C 98.226562 69.726562 97.886719 69.671875 97.621094 69.671875 L 86.132812 69.671875 C 86.339844 69.671875 86.535156 69.601562 86.714844 69.453125 C 86.953125 69.253906 87.070312 69.003906 87.070312 68.707031 C 87.070312 69.351562 87.078125 69.992188 87.101562 70.636719 L 87.101562 70.671875 C 87.101562 72.351562 87.113281 74.027344 87.144531 75.695312 C 87.171875 77.382812 87.179688 79.0625 87.160156 80.730469 C 87.160156 81.171875 87.15625 81.734375 87.144531 82.414062 C 87.136719 83.09375 87.121094 83.785156 87.101562 84.480469 L 87.054688 86.230469 L 87.039062 86.921875 C 87.039062 86.773438 86.976562 86.625 86.855469 86.476562 C 86.683594 86.269531 86.472656 86.164062 86.222656 86.164062 L 93.039062 86.164062 C 92.925781 86.164062 92.8125 86.1875 92.703125 86.238281 C 92.558594 86.300781 92.441406 86.394531 92.347656 86.523438 C 92.242188 86.660156 92.191406 86.792969 92.191406 86.921875 L 92.191406 85.777344 C 92.191406 85.292969 92.214844 84.894531 92.261719 84.582031 L 93.363281 84.75 L 92.253906 84.644531 C 92.3125 84.015625 92.472656 83.53125 92.730469 83.195312 C 93.082031 82.734375 93.671875 82.503906 94.496094 82.503906 C 94.667969 82.503906 95.003906 82.46875 95.5 82.40625 C 96.011719 82.34375 96.546875 82.25 97.097656 82.128906 C 97.578125 82.023438 97.933594 81.902344 98.164062 81.773438 C 98.40625 81.644531 98.707031 81.46875 99.070312 81.25 C 99.363281 81.070312 99.722656 80.761719 100.152344 80.316406 C 100.566406 79.886719 100.859375 79.449219 101.035156 79.011719 C 101.238281 78.5 101.378906 78.023438 101.464844 77.574219 L 101.476562 77.53125 L 101.488281 77.492188 C 101.523438 77.347656 101.558594 77.058594 101.582031 76.617188 C 101.613281 76.117188 101.628906 75.617188 101.640625 75.113281 C 101.648438 74.640625 101.648438 74.3125 101.628906 74.136719 Z M 94.125 74.242188 C 94.125 74.136719 94.117188 73.992188 94.097656 73.808594 C 94.097656 73.789062 94.09375 73.777344 94.089844 73.769531 C 94.152344 73.859375 94.230469 73.921875 94.328125 73.964844 C 94.355469 73.976562 94.382812 73.984375 94.40625 73.988281 L 94.40625 73.992188 C 94.425781 73.992188 94.453125 73.980469 94.496094 73.960938 C 94.578125 73.925781 94.648438 73.871094 94.703125 73.796875 C 94.679688 73.824219 94.667969 73.855469 94.664062 73.878906 C 94.640625 74.035156 94.628906 74.148438 94.628906 74.214844 L 94.628906 74.277344 L 94.625 74.335938 C 94.605469 74.484375 94.59375 74.742188 94.585938 75.117188 L 94.554688 76.339844 C 94.546875 76.691406 94.550781 76.917969 94.5625 77.023438 L 94.570312 77.089844 L 94.570312 77.160156 C 94.570312 77.25 94.582031 77.386719 94.605469 77.566406 C 94.613281 77.632812 94.636719 77.691406 94.667969 77.742188 C 94.605469 77.644531 94.527344 77.574219 94.429688 77.53125 C 94.398438 77.515625 94.371094 77.507812 94.34375 77.503906 L 94.347656 77.503906 C 94.363281 77.503906 94.375 77.503906 94.386719 77.5 L 94.386719 77.503906 C 94.351562 77.507812 94.3125 77.527344 94.273438 77.550781 C 94.136719 77.628906 94.050781 77.742188 94.011719 77.882812 C 94.078125 77.640625 94.117188 77.457031 94.132812 77.332031 L 95.238281 77.457031 L 94.125 77.457031 C 94.125 77.25 94.128906 76.914062 94.140625 76.449219 C 94.148438 76.003906 94.152344 75.5625 94.152344 75.136719 C 94.152344 74.746094 94.148438 74.492188 94.132812 74.382812 L 94.125 74.3125 Z M 96.355469 74.242188 L 95.238281 74.242188 L 96.347656 74.105469 C 96.375 74.308594 96.386719 74.652344 96.386719 75.136719 C 96.386719 75.582031 96.382812 76.035156 96.371094 76.5 C 96.363281 76.949219 96.355469 77.265625 96.355469 77.457031 L 96.355469 77.519531 L 96.351562 77.582031 C 96.324219 77.816406 96.261719 78.109375 96.171875 78.460938 C 96.054688 78.902344 95.804688 79.234375 95.421875 79.464844 C 95.121094 79.644531 94.761719 79.734375 94.347656 79.734375 C 94.039062 79.734375 93.757812 79.679688 93.507812 79.566406 C 93.199219 79.425781 92.957031 79.214844 92.777344 78.933594 C 92.570312 78.605469 92.445312 78.246094 92.390625 77.855469 C 92.355469 77.578125 92.339844 77.347656 92.339844 77.160156 L 93.453125 77.160156 L 92.347656 77.296875 C 92.320312 77.085938 92.3125 76.746094 92.324219 76.285156 L 92.351562 75.0625 C 92.363281 74.625 92.382812 74.300781 92.40625 74.089844 L 93.515625 74.214844 L 92.398438 74.214844 C 92.398438 74.042969 92.417969 73.824219 92.453125 73.5625 C 92.511719 73.171875 92.65625 72.816406 92.890625 72.488281 C 93.242188 72 93.75 71.757812 94.40625 71.757812 C 95.070312 71.757812 95.574219 72 95.914062 72.484375 C 96.148438 72.816406 96.285156 73.1875 96.324219 73.605469 C 96.34375 73.859375 96.355469 74.070312 96.355469 74.242188 Z M 96.355469 74.242188 "/>
</g>
<path style=" stroke:none;fill-rule:nonzero;fill:rgb(100%,100%,100%);fill-opacity:1;" d="M 102.742188 74.035156 C 102.761719 74.253906 102.765625 74.617188 102.757812 75.132812 C 102.746094 75.652344 102.726562 76.167969 102.695312 76.6875 C 102.664062 77.203125 102.621094 77.570312 102.5625 77.789062 C 102.464844 78.304688 102.300781 78.851562 102.070312 79.425781 C 101.84375 80 101.472656 80.554688 100.957031 81.085938 C 100.457031 81.605469 100.019531 81.976562 99.644531 82.207031 C 99.269531 82.433594 98.953125 82.617188 98.695312 82.753906 C 98.375 82.9375 97.921875 83.09375 97.335938 83.21875 C 96.753906 83.351562 96.191406 83.449219 95.644531 83.519531 C 95.097656 83.585938 94.714844 83.621094 94.496094 83.621094 C 94.039062 83.621094 93.746094 83.707031 93.617188 83.875 C 93.488281 84.042969 93.402344 84.332031 93.363281 84.746094 C 93.324219 85.011719 93.304688 85.355469 93.304688 85.78125 C 93.304688 86.207031 93.304688 86.585938 93.304688 86.921875 C 93.304688 87.160156 93.214844 87.28125 93.035156 87.28125 L 86.222656 87.28125 C 86.023438 87.28125 85.921875 87.160156 85.921875 86.921875 C 85.921875 86.921875 85.925781 86.683594 85.9375 86.207031 C 85.949219 85.730469 85.964844 85.148438 85.984375 84.453125 C 86 83.761719 86.011719 83.078125 86.023438 82.402344 C 86.035156 81.726562 86.042969 81.171875 86.042969 80.734375 C 86.058594 79.066406 86.054688 77.398438 86.023438 75.71875 C 85.996094 74.039062 85.984375 72.359375 85.984375 70.671875 C 85.964844 70.015625 85.957031 69.359375 85.957031 68.707031 C 85.957031 68.609375 86.011719 68.558594 86.128906 68.558594 L 97.625 68.558594 C 97.976562 68.558594 98.410156 68.625 98.917969 68.753906 C 99.421875 68.882812 100.011719 69.207031 100.691406 69.71875 C 101.144531 70.078125 101.507812 70.511719 101.785156 71.027344 C 102.0625 71.542969 102.277344 72.070312 102.421875 72.605469 C 102.574219 73.140625 102.679688 73.617188 102.742188 74.035156 Z M 95.242188 74.242188 C 95.242188 74.105469 95.230469 73.925781 95.210938 73.707031 C 95.191406 73.492188 95.125 73.296875 95.003906 73.128906 C 94.882812 72.957031 94.683594 72.875 94.410156 72.875 C 94.128906 72.875 93.925781 72.964844 93.796875 73.140625 C 93.667969 73.320312 93.585938 73.511719 93.558594 73.71875 C 93.53125 73.929688 93.515625 74.09375 93.515625 74.214844 C 93.492188 74.390625 93.476562 74.683594 93.46875 75.09375 C 93.460938 75.5 93.449219 75.90625 93.4375 76.3125 C 93.425781 76.71875 93.433594 77 93.457031 77.160156 C 93.457031 77.296875 93.46875 77.484375 93.496094 77.714844 C 93.527344 77.941406 93.601562 78.152344 93.722656 78.339844 C 93.84375 78.527344 94.050781 78.621094 94.351562 78.621094 C 94.761719 78.621094 95.011719 78.472656 95.089844 78.171875 C 95.171875 77.878906 95.21875 77.640625 95.242188 77.460938 C 95.242188 77.261719 95.246094 76.933594 95.257812 76.480469 C 95.265625 76.023438 95.269531 75.578125 95.269531 75.140625 C 95.269531 74.699219 95.261719 74.402344 95.242188 74.242188 Z M 95.242188 74.242188 "/>
<g clip-path="url(#clip5)" clip-rule="nonzero">
<path style=" stroke:none;fill-rule:nonzero;fill:rgb(13.333334%,13.333334%,13.333334%);fill-opacity:1;" d="M 78.785156 67.441406 L 87.03125 67.441406 C 87.46875 67.441406 87.820312 67.59375 88.097656 67.890625 C 88.347656 68.164062 88.472656 68.507812 88.472656 68.914062 L 88.472656 68.972656 L 88.46875 69.03125 C 88.410156 69.570312 88.378906 70.332031 88.371094 71.308594 C 88.359375 72.316406 88.355469 73.410156 88.355469 74.585938 C 88.355469 75.757812 88.367188 76.902344 88.382812 78.019531 L 88.429688 80.984375 C 88.4375 81.820312 88.453125 82.402344 88.472656 82.71875 L 88.472656 82.785156 C 88.472656 83.457031 88.492188 84.128906 88.53125 84.789062 C 88.570312 85.464844 88.617188 86.144531 88.679688 86.828125 C 88.714844 87.273438 88.597656 87.644531 88.320312 87.945312 C 88.046875 88.246094 87.683594 88.398438 87.238281 88.398438 L 78.816406 88.398438 C 78.632812 88.398438 78.464844 88.359375 78.300781 88.289062 C 78.078125 88.183594 77.902344 88.027344 77.773438 87.816406 C 77.613281 87.546875 77.5625 87.242188 77.628906 86.914062 L 78.726562 87.132812 L 77.621094 86.960938 C 77.65625 86.75 77.679688 86.320312 77.699219 85.671875 C 77.71875 84.988281 77.730469 84.21875 77.730469 83.367188 C 77.730469 82.507812 77.722656 81.699219 77.714844 80.941406 C 77.703125 80.191406 77.6875 79.625 77.671875 79.242188 L 77.667969 79.210938 L 77.667969 79.183594 C 77.667969 78.710938 77.664062 78.09375 77.652344 77.324219 L 77.625 74.820312 L 77.59375 72.21875 L 77.566406 70.003906 C 77.554688 69.363281 77.550781 68.921875 77.550781 68.675781 L 77.550781 68.214844 L 78.320312 67.441406 Z M 78.785156 69.671875 L 78.785156 68.558594 L 79.574219 69.347656 L 79.457031 69.464844 L 78.664062 68.675781 L 79.78125 68.675781 C 79.78125 68.910156 79.785156 69.339844 79.796875 69.972656 L 79.828125 72.191406 L 79.855469 74.796875 L 79.886719 77.292969 C 79.898438 78.074219 79.902344 78.703125 79.902344 79.183594 L 78.785156 79.183594 L 79.898438 79.128906 C 79.921875 79.539062 79.933594 80.132812 79.945312 80.910156 C 79.957031 81.679688 79.960938 82.5 79.960938 83.367188 C 79.960938 84.242188 79.949219 85.027344 79.929688 85.734375 C 79.910156 86.476562 79.875 86.996094 79.828125 87.300781 L 79.824219 87.324219 L 79.820312 87.351562 C 79.867188 87.117188 79.824219 86.890625 79.691406 86.667969 C 79.578125 86.480469 79.421875 86.34375 79.226562 86.253906 C 79.09375 86.195312 78.957031 86.164062 78.816406 86.164062 L 87.238281 86.164062 C 87.171875 86.164062 87.105469 86.175781 87.03125 86.203125 C 86.894531 86.25 86.777344 86.328125 86.675781 86.4375 C 86.574219 86.546875 86.507812 86.671875 86.472656 86.808594 C 86.457031 86.882812 86.449219 86.953125 86.453125 87.019531 C 86.394531 86.3125 86.34375 85.613281 86.300781 84.917969 C 86.261719 84.214844 86.242188 83.503906 86.242188 82.785156 L 87.355469 82.785156 L 86.242188 82.851562 C 86.222656 82.496094 86.207031 81.886719 86.195312 81.015625 L 86.152344 78.058594 C 86.132812 76.929688 86.121094 75.773438 86.121094 74.585938 C 86.121094 73.402344 86.128906 72.300781 86.136719 71.285156 C 86.148438 70.238281 86.183594 69.410156 86.246094 68.800781 L 87.355469 68.914062 L 86.242188 68.914062 C 86.242188 69.085938 86.3125 69.246094 86.453125 69.402344 C 86.617188 69.582031 86.8125 69.671875 87.03125 69.671875 Z M 78.785156 69.671875 "/>
</g>
<path style=" stroke:none;fill-rule:nonzero;fill:rgb(100%,100%,100%);fill-opacity:1;" d="M 78.785156 68.558594 L 87.03125 68.558594 C 87.25 68.558594 87.359375 68.679688 87.359375 68.914062 C 87.296875 69.492188 87.261719 70.289062 87.253906 71.300781 C 87.242188 72.308594 87.238281 73.40625 87.238281 74.585938 C 87.238281 75.765625 87.246094 76.917969 87.265625 78.039062 C 87.285156 79.160156 87.300781 80.148438 87.3125 81 C 87.320312 81.855469 87.335938 82.449219 87.359375 82.789062 C 87.359375 83.480469 87.378906 84.171875 87.417969 84.855469 C 87.457031 85.539062 87.507812 86.226562 87.566406 86.921875 C 87.585938 87.160156 87.480469 87.28125 87.238281 87.28125 L 78.8125 87.28125 C 78.734375 87.28125 78.707031 87.230469 78.726562 87.132812 C 78.765625 86.878906 78.792969 86.402344 78.8125 85.707031 C 78.832031 85.011719 78.84375 84.230469 78.84375 83.367188 C 78.84375 82.503906 78.839844 81.691406 78.824219 80.925781 C 78.816406 80.164062 78.800781 79.582031 78.785156 79.1875 C 78.785156 78.707031 78.777344 78.082031 78.765625 77.308594 C 78.753906 76.535156 78.746094 75.699219 78.738281 74.808594 C 78.730469 73.914062 78.71875 73.046875 78.710938 72.207031 C 78.703125 71.363281 78.691406 70.625 78.679688 69.988281 C 78.667969 69.351562 78.664062 68.914062 78.664062 68.671875 C 78.6875 68.65625 78.726562 68.617188 78.785156 68.558594 Z M 78.785156 68.558594 "/>
<g clip-path="url(#clip6)" clip-rule="nonzero">
<path style=" stroke:none;fill-rule:nonzero;fill:rgb(100%,100%,100%);fill-opacity:1;" d="M 85.875 78.183594 L 90.554688 78.183594 L 90.554688 87.304688 L 85.875 87.304688 Z M 85.875 78.183594 "/>
</g>
<g clip-path="url(#clip7)" clip-rule="nonzero">
<g clip-path="url(#clip8)" clip-rule="nonzero">
<g clip-path="url(#clip9)" clip-rule="nonzero">
<path style=" stroke:none;fill-rule:nonzero;fill:rgb(13.333334%,13.333334%,13.333334%);fill-opacity:1;" d="M 85.984375 68.4375 L 83.308594 77.820312 L 86.292969 77.761719 L 84.910156 86.6875 L 91.273438 74.988281 L 88.453125 75.015625 L 92.242188 68.449219 Z M 85.984375 68.4375 "/>
</g>
</g>
</g>
<g clip-path="url(#clip10)" clip-rule="nonzero">
<path style=" stroke:none;fill-rule:nonzero;fill:rgb(100%,100%,100%);fill-opacity:1;" d="M 51.867188 91.523438 L 108.117188 91.523438 L 108.117188 100.789062 L 51.867188 100.789062 Z M 51.867188 91.523438 "/>
</g>
<g clip-path="url(#clip11)" clip-rule="nonzero">
<path style=" stroke:none;fill-rule:nonzero;fill:rgb(13.333334%,13.333334%,13.333334%);fill-opacity:1;" d="M 83.105469 84.273438 C 83.105469 84.402344 83.109375 84.605469 83.121094 84.890625 L 83.148438 85.832031 C 83.160156 86.15625 83.167969 86.433594 83.175781 86.667969 L 83.195312 87.046875 L 83.195312 87.070312 C 83.195312 87.417969 83.089844 87.710938 82.882812 87.957031 C 82.628906 88.25 82.300781 88.398438 81.898438 88.398438 L 65.496094 88.398438 C 65.308594 88.398438 65.128906 88.355469 64.960938 88.277344 C 64.765625 88.1875 64.605469 88.054688 64.476562 87.878906 C 64.3125 87.648438 64.234375 87.378906 64.234375 87.070312 L 64.234375 74.839844 C 64.234375 74.046875 64.253906 73.253906 64.292969 72.457031 L 65.410156 72.515625 L 64.292969 72.515625 C 64.292969 71.832031 64.28125 71.160156 64.261719 70.496094 L 64.261719 70.460938 C 64.261719 70.179688 64.257812 69.902344 64.25 69.640625 C 64.238281 69.324219 64.242188 68.996094 64.265625 68.664062 L 64.269531 68.605469 L 64.277344 68.550781 C 64.328125 68.257812 64.449219 68.011719 64.648438 67.8125 C 64.898438 67.566406 65.199219 67.441406 65.558594 67.441406 L 73.921875 67.441406 C 74.113281 67.441406 74.289062 67.480469 74.460938 67.558594 C 74.652344 67.652344 74.816406 67.785156 74.941406 67.960938 C 75.105469 68.191406 75.1875 68.457031 75.1875 68.765625 C 75.1875 69.378906 75.207031 69.984375 75.246094 70.585938 C 75.285156 71.222656 75.316406 71.863281 75.335938 72.511719 C 75.355469 72.933594 75.367188 73.355469 75.367188 73.78125 L 75.367188 74.988281 L 74.25 74.988281 L 75.363281 74.90625 C 75.386719 75.226562 75.386719 75.667969 75.363281 76.234375 L 75.304688 77.769531 C 75.289062 78.207031 75.285156 78.472656 75.296875 78.570312 L 75.304688 78.640625 L 75.304688 79.511719 C 75.304688 79.539062 75.308594 79.558594 75.308594 79.566406 C 75.304688 79.546875 75.292969 79.53125 75.277344 79.511719 L 75.304688 79.542969 L 75.328125 79.578125 C 75.226562 79.429688 75.117188 79.332031 74.996094 79.289062 C 75.027344 79.300781 75.097656 79.3125 75.199219 79.324219 C 75.539062 79.359375 75.894531 79.378906 76.273438 79.378906 L 77.195312 79.378906 C 77.386719 79.378906 77.683594 79.371094 78.09375 79.363281 C 78.503906 79.355469 78.949219 79.339844 79.425781 79.320312 L 80.824219 79.257812 C 81.285156 79.238281 81.652344 79.230469 81.929688 79.230469 L 82.039062 79.230469 L 82.148438 79.25 C 82.5 79.320312 82.769531 79.5 82.960938 79.785156 C 83.152344 80.070312 83.210938 80.390625 83.144531 80.742188 L 82.046875 80.523438 L 83.164062 80.523438 L 83.164062 80.96875 C 83.164062 81.242188 83.160156 81.523438 83.148438 81.8125 C 83.140625 82.078125 83.132812 82.273438 83.132812 82.398438 L 83.132812 82.46875 C 83.113281 82.761719 83.105469 83.058594 83.105469 83.351562 Z M 80.871094 84.273438 L 80.871094 83.351562 C 80.871094 83.011719 80.882812 82.671875 80.902344 82.328125 L 82.019531 82.398438 L 80.902344 82.398438 C 80.902344 82.246094 80.90625 82.027344 80.917969 81.734375 C 80.925781 81.46875 80.929688 81.214844 80.929688 80.96875 L 80.929688 80.414062 L 80.953125 80.304688 C 80.902344 80.558594 80.953125 80.796875 81.105469 81.023438 C 81.257812 81.25 81.457031 81.390625 81.710938 81.4375 L 81.929688 80.34375 L 81.929688 81.460938 C 81.6875 81.460938 81.351562 81.46875 80.917969 81.492188 L 79.519531 81.550781 C 79.027344 81.570312 78.570312 81.585938 78.144531 81.59375 C 77.71875 81.605469 77.402344 81.609375 77.195312 81.609375 L 76.273438 81.609375 C 75.816406 81.609375 75.382812 81.589844 74.964844 81.542969 C 74.242188 81.46875 73.742188 81.226562 73.46875 80.816406 L 74.398438 80.195312 L 73.519531 80.882812 C 73.222656 80.503906 73.074219 80.046875 73.074219 79.511719 L 73.074219 78.707031 L 74.1875 78.707031 L 73.082031 78.847656 C 73.054688 78.628906 73.050781 78.238281 73.074219 77.683594 L 73.132812 76.152344 C 73.152344 75.664062 73.152344 75.304688 73.136719 75.066406 L 73.132812 75.027344 L 73.132812 73.78125 C 73.132812 73.390625 73.121094 72.992188 73.105469 72.582031 C 73.085938 71.957031 73.054688 71.339844 73.015625 70.726562 C 72.972656 70.078125 72.953125 69.425781 72.953125 68.765625 C 72.953125 68.933594 73.011719 69.097656 73.125 69.257812 C 73.226562 69.402344 73.355469 69.507812 73.515625 69.582031 C 73.644531 69.644531 73.78125 69.671875 73.921875 69.671875 L 65.558594 69.671875 C 65.816406 69.671875 66.039062 69.582031 66.226562 69.390625 C 66.367188 69.253906 66.449219 69.09375 66.480469 68.921875 L 65.378906 68.738281 L 66.492188 68.808594 C 66.476562 69.070312 66.472656 69.320312 66.480469 69.558594 C 66.492188 69.851562 66.496094 70.152344 66.496094 70.460938 L 65.378906 70.460938 L 66.496094 70.429688 C 66.515625 71.117188 66.527344 71.808594 66.527344 72.515625 L 66.527344 72.546875 L 66.523438 72.574219 C 66.484375 73.328125 66.464844 74.082031 66.464844 74.839844 L 66.464844 87.070312 C 66.464844 86.902344 66.410156 86.738281 66.292969 86.578125 C 66.195312 86.4375 66.0625 86.332031 65.90625 86.253906 C 65.773438 86.195312 65.640625 86.164062 65.496094 86.164062 L 81.898438 86.164062 C 81.617188 86.164062 81.378906 86.277344 81.1875 86.503906 C 81.035156 86.675781 80.960938 86.867188 80.960938 87.070312 L 82.078125 87.070312 L 80.960938 87.117188 L 80.949219 86.761719 C 80.9375 86.519531 80.925781 86.230469 80.917969 85.902344 L 80.886719 84.964844 C 80.878906 84.65625 80.871094 84.425781 80.871094 84.273438 Z M 80.871094 84.273438 "/>
</g>
<path style=" stroke:none;fill-rule:nonzero;fill:rgb(100%,100%,100%);fill-opacity:1;" d="M 81.988281 84.273438 C 81.988281 84.414062 81.992188 84.628906 82.003906 84.925781 C 82.011719 85.226562 82.019531 85.539062 82.027344 85.867188 C 82.042969 86.195312 82.050781 86.480469 82.0625 86.71875 C 82.070312 86.957031 82.074219 87.074219 82.074219 87.074219 C 82.074219 87.210938 82.019531 87.28125 81.902344 87.28125 L 65.496094 87.28125 C 65.398438 87.28125 65.347656 87.210938 65.347656 87.074219 L 65.347656 86.59375 C 65.347656 86.578125 65.347656 86.566406 65.347656 86.566406 C 65.347656 86.527344 65.347656 86.488281 65.347656 86.445312 L 65.347656 77.160156 C 65.347656 76.386719 65.347656 75.613281 65.347656 74.839844 C 65.347656 74.0625 65.371094 73.289062 65.410156 72.515625 C 65.410156 71.820312 65.398438 71.136719 65.375 70.460938 C 65.375 70.164062 65.371094 69.878906 65.363281 69.601562 C 65.351562 69.320312 65.359375 69.03125 65.375 68.734375 C 65.398438 68.617188 65.457031 68.558594 65.554688 68.558594 L 73.921875 68.558594 C 74.019531 68.558594 74.070312 68.628906 74.070312 68.765625 C 74.070312 69.402344 74.089844 70.035156 74.128906 70.660156 C 74.167969 71.285156 74.199219 71.914062 74.222656 72.546875 C 74.238281 72.964844 74.25 73.378906 74.25 73.789062 C 74.25 74.191406 74.25 74.59375 74.25 74.988281 C 74.269531 75.265625 74.269531 75.664062 74.25 76.195312 C 74.230469 76.71875 74.210938 77.230469 74.1875 77.726562 C 74.171875 78.21875 74.171875 78.546875 74.1875 78.707031 C 74.1875 78.964844 74.1875 79.234375 74.1875 79.515625 C 74.1875 79.789062 74.257812 80.015625 74.394531 80.195312 C 74.476562 80.3125 74.703125 80.394531 75.082031 80.433594 C 75.460938 80.472656 75.855469 80.492188 76.269531 80.492188 C 76.6875 80.492188 76.996094 80.492188 77.195312 80.492188 C 77.394531 80.492188 77.703125 80.492188 78.117188 80.480469 C 78.53125 80.472656 78.984375 80.457031 79.46875 80.441406 C 79.957031 80.417969 80.425781 80.398438 80.871094 80.378906 C 81.316406 80.359375 81.671875 80.347656 81.929688 80.347656 C 82.027344 80.367188 82.066406 80.421875 82.050781 80.519531 C 82.050781 80.558594 82.050781 80.710938 82.050781 80.96875 C 82.050781 81.226562 82.042969 81.492188 82.027344 81.773438 C 82.019531 82.050781 82.015625 82.257812 82.015625 82.402344 C 81.996094 82.71875 81.988281 83.035156 81.988281 83.355469 C 81.988281 83.671875 81.988281 83.976562 81.988281 84.273438 Z M 81.988281 84.273438 "/>
<g clip-path="url(#clip12)" clip-rule="nonzero">
<path style=" stroke:none;fill-rule:nonzero;fill:rgb(13.333334%,13.333334%,13.333334%);fill-opacity:1;" d="M 67.671875 79.390625 C 67.671875 79.640625 67.667969 80.007812 67.65625 80.503906 L 67.628906 82.105469 C 67.617188 82.679688 67.617188 83.234375 67.628906 83.777344 C 67.636719 84.300781 67.660156 84.734375 67.695312 85.082031 L 67.699219 85.140625 L 67.699219 86.980469 C 67.699219 87.390625 67.566406 87.726562 67.300781 87.996094 C 67.03125 88.261719 66.695312 88.398438 66.289062 88.398438 L 59.324219 88.398438 C 58.003906 88.398438 56.914062 88.316406 56.050781 88.152344 C 55.164062 87.988281 54.445312 87.777344 53.890625 87.515625 C 53.398438 87.289062 53 87.082031 52.695312 86.910156 L 52.664062 86.890625 C 52.199219 86.601562 51.746094 86.273438 51.308594 85.898438 C 50.824219 85.488281 50.433594 85.046875 50.132812 84.570312 C 49.546875 83.628906 49.167969 82.761719 48.992188 81.972656 C 48.824219 81.226562 48.742188 80.488281 48.742188 79.75 L 48.742188 76.175781 L 50.972656 76.175781 L 50.972656 76.746094 L 48.742188 76.746094 L 48.742188 76.148438 C 48.742188 75.433594 48.792969 74.738281 48.902344 74.066406 C 49.011719 73.386719 49.167969 72.757812 49.367188 72.179688 L 50.421875 72.546875 L 49.359375 72.207031 C 49.5625 71.570312 49.882812 70.992188 50.316406 70.484375 C 50.671875 70.0625 51.050781 69.65625 51.449219 69.257812 L 51.488281 69.21875 C 52.023438 68.738281 52.6875 68.363281 53.492188 68.09375 C 54.21875 67.851562 55.003906 67.679688 55.84375 67.582031 C 56.652344 67.488281 57.445312 67.441406 58.21875 67.441406 L 66.109375 67.441406 C 66.476562 67.441406 66.828125 67.59375 67.160156 67.898438 C 67.519531 68.230469 67.699219 68.597656 67.699219 69.003906 L 67.699219 70.660156 L 67.667969 70.792969 C 67.660156 70.828125 67.652344 70.863281 67.648438 70.898438 C 67.644531 70.933594 67.640625 70.964844 67.640625 71 L 67.640625 71.058594 L 67.636719 71.121094 C 67.621094 71.253906 67.617188 71.566406 67.628906 72.066406 L 67.65625 73.820312 L 67.6875 75.441406 L 67.699219 76.125 C 67.699219 76.527344 67.585938 76.855469 67.347656 77.117188 C 67.082031 77.414062 66.738281 77.5625 66.316406 77.5625 L 66.253906 77.5625 L 66.195312 77.554688 C 66.0625 77.539062 65.78125 77.539062 65.34375 77.546875 L 63.640625 77.578125 C 63.003906 77.585938 62.371094 77.601562 61.753906 77.621094 C 61.125 77.640625 60.574219 77.65625 60.105469 77.664062 C 59.628906 77.675781 59.339844 77.679688 59.230469 77.679688 C 59.050781 77.679688 58.90625 77.695312 58.800781 77.730469 C 58.777344 77.738281 58.753906 77.746094 58.742188 77.753906 C 58.746094 77.753906 58.75 77.746094 58.757812 77.742188 C 58.707031 77.796875 58.671875 77.835938 58.65625 77.863281 C 58.675781 77.832031 58.683594 77.785156 58.683594 77.726562 C 58.683594 77.785156 58.6875 77.824219 58.699219 77.84375 C 58.703125 77.847656 58.71875 77.859375 58.734375 77.871094 C 58.941406 77.992188 59.074219 78.054688 59.136719 78.0625 C 59.332031 78.09375 59.613281 78.125 59.976562 78.164062 C 60.164062 78.179688 60.5 78.1875 60.972656 78.1875 C 61.472656 78.1875 62.019531 78.183594 62.605469 78.171875 L 64.320312 78.140625 L 65.683594 78.113281 L 66.273438 78.097656 L 66.289062 78.097656 C 66.582031 78.097656 66.84375 78.175781 67.078125 78.332031 C 67.335938 78.5 67.515625 78.738281 67.613281 79.039062 L 67.671875 79.210938 Z M 65.4375 79.390625 L 66.554688 79.390625 L 65.496094 79.746094 C 65.558594 79.929688 65.671875 80.074219 65.839844 80.1875 C 65.980469 80.28125 66.132812 80.332031 66.289062 80.332031 L 66.289062 79.214844 L 66.316406 80.332031 L 65.730469 80.34375 L 64.355469 80.375 L 62.644531 80.402344 C 62.042969 80.414062 61.484375 80.417969 60.972656 80.417969 C 60.4375 80.417969 60.027344 80.40625 59.742188 80.382812 C 59.351562 80.34375 59.042969 80.304688 58.824219 80.273438 C 58.46875 80.222656 58.058594 80.058594 57.585938 79.785156 C 57.214844 79.558594 56.929688 79.265625 56.730469 78.902344 C 56.542969 78.554688 56.449219 78.164062 56.449219 77.726562 C 56.449219 77.1875 56.683594 76.675781 57.148438 76.191406 C 57.625 75.695312 58.320312 75.449219 59.230469 75.449219 C 59.324219 75.449219 59.597656 75.445312 60.058594 75.433594 C 60.519531 75.421875 61.0625 75.410156 61.683594 75.390625 C 62.3125 75.367188 62.953125 75.355469 63.605469 75.34375 L 65.296875 75.316406 C 65.832031 75.304688 66.214844 75.308594 66.441406 75.335938 L 66.316406 76.445312 L 66.316406 75.328125 C 66.074219 75.328125 65.867188 75.425781 65.6875 75.625 C 65.542969 75.789062 65.46875 75.96875 65.46875 76.171875 L 65.453125 75.484375 L 65.425781 73.859375 L 65.394531 72.105469 C 65.382812 71.511719 65.390625 71.101562 65.414062 70.875 L 66.527344 71 L 65.410156 71 C 65.410156 70.871094 65.417969 70.746094 65.433594 70.621094 C 65.449219 70.5 65.46875 70.375 65.503906 70.253906 L 66.585938 70.523438 L 65.46875 70.523438 L 65.46875 69.003906 C 65.46875 69.179688 65.511719 69.335938 65.597656 69.46875 C 65.621094 69.507812 65.640625 69.53125 65.652344 69.542969 C 65.664062 69.554688 65.683594 69.566406 65.707031 69.578125 C 65.824219 69.640625 65.957031 69.671875 66.109375 69.671875 L 58.21875 69.671875 C 57.53125 69.671875 56.824219 69.714844 56.105469 69.800781 C 55.414062 69.878906 54.78125 70.019531 54.199219 70.210938 C 53.691406 70.378906 53.289062 70.601562 52.988281 70.875 L 52.238281 70.046875 L 53.027344 70.835938 C 52.671875 71.191406 52.335938 71.554688 52.015625 71.929688 C 51.777344 72.214844 51.597656 72.53125 51.484375 72.886719 L 51.480469 72.898438 L 51.476562 72.914062 C 51.320312 73.367188 51.199219 73.867188 51.105469 74.421875 C 51.015625 74.976562 50.972656 75.550781 50.972656 76.148438 L 50.972656 76.746094 C 50.972656 76.894531 50.945312 77.039062 50.886719 77.171875 C 50.832031 77.308594 50.75 77.433594 50.644531 77.539062 C 50.539062 77.640625 50.421875 77.722656 50.285156 77.777344 C 50.148438 77.835938 50.003906 77.863281 49.855469 77.863281 C 49.710938 77.863281 49.566406 77.835938 49.429688 77.777344 C 49.292969 77.722656 49.171875 77.640625 49.066406 77.539062 C 48.960938 77.433594 48.882812 77.308594 48.824219 77.171875 C 48.769531 77.039062 48.742188 76.894531 48.742188 76.746094 L 48.742188 76.175781 L 50.972656 76.175781 L 50.972656 79.75 C 50.972656 80.320312 51.039062 80.902344 51.167969 81.484375 C 51.289062 82.027344 51.574219 82.660156 52.019531 83.378906 C 52.199219 83.664062 52.441406 83.933594 52.753906 84.195312 C 53.105469 84.5 53.46875 84.765625 53.835938 84.992188 L 53.25 85.941406 L 53.804688 84.972656 C 54.054688 85.117188 54.402344 85.289062 54.839844 85.496094 C 55.21875 85.671875 55.761719 85.828125 56.460938 85.960938 C 57.1875 86.09375 58.140625 86.164062 59.324219 86.164062 L 66.289062 86.164062 C 66.078125 86.164062 65.890625 86.25 65.71875 86.417969 C 65.550781 86.585938 65.46875 86.773438 65.46875 86.980469 L 65.46875 85.195312 L 66.585938 85.195312 L 65.476562 85.3125 C 65.433594 84.902344 65.40625 84.40625 65.394531 83.816406 C 65.382812 83.25 65.382812 82.664062 65.394531 82.066406 L 65.425781 80.457031 C 65.433594 79.976562 65.4375 79.625 65.4375 79.390625 Z M 65.4375 79.390625 "/>
</g>
<path style=" stroke:none;fill-rule:nonzero;fill:rgb(100%,100%,100%);fill-opacity:1;" d="M 66.554688 79.394531 C 66.554688 79.628906 66.550781 79.992188 66.542969 80.480469 C 66.53125 80.964844 66.523438 81.5 66.507812 82.085938 C 66.5 82.671875 66.5 83.246094 66.507812 83.800781 C 66.523438 84.355469 66.546875 84.820312 66.582031 85.195312 L 66.582031 86.980469 C 66.582031 87.179688 66.484375 87.28125 66.289062 87.28125 L 59.324219 87.28125 C 58.074219 87.28125 57.050781 87.207031 56.253906 87.058594 C 55.464844 86.910156 54.835938 86.726562 54.367188 86.507812 C 53.902344 86.289062 53.527344 86.101562 53.25 85.941406 C 52.832031 85.683594 52.425781 85.386719 52.027344 85.046875 C 51.632812 84.710938 51.316406 84.351562 51.074219 83.972656 C 50.558594 83.144531 50.226562 82.398438 50.074219 81.734375 C 49.929688 81.066406 49.855469 80.40625 49.855469 79.746094 L 49.855469 76.179688 C 49.855469 76.179688 49.855469 76.238281 49.855469 76.347656 C 49.855469 76.453125 49.855469 76.558594 49.855469 76.652344 C 49.855469 76.753906 49.855469 76.773438 49.855469 76.714844 C 49.855469 76.65625 49.855469 76.46875 49.855469 76.148438 C 49.855469 75.492188 49.902344 74.859375 50.003906 74.246094 C 50.105469 73.628906 50.242188 73.0625 50.421875 72.546875 C 50.582031 72.050781 50.832031 71.605469 51.167969 71.207031 C 51.503906 70.8125 51.863281 70.425781 52.234375 70.046875 C 52.652344 69.671875 53.1875 69.371094 53.84375 69.152344 C 54.5 68.9375 55.210938 68.785156 55.976562 68.695312 C 56.738281 68.605469 57.488281 68.558594 58.222656 68.558594 L 66.109375 68.558594 C 66.1875 68.558594 66.285156 68.617188 66.402344 68.726562 C 66.523438 68.832031 66.582031 68.925781 66.582031 69 L 66.582031 70.519531 C 66.5625 70.601562 66.550781 70.679688 66.542969 70.761719 C 66.53125 70.839844 66.527344 70.921875 66.527344 71 C 66.503906 71.179688 66.5 71.539062 66.507812 72.085938 C 66.523438 72.628906 66.53125 73.214844 66.542969 73.839844 C 66.550781 74.46875 66.558594 75.011719 66.570312 75.46875 C 66.578125 75.921875 66.582031 76.148438 66.582031 76.148438 C 66.582031 76.347656 66.492188 76.445312 66.316406 76.445312 C 66.136719 76.425781 65.804688 76.421875 65.316406 76.433594 C 64.832031 76.445312 64.265625 76.453125 63.621094 76.460938 C 62.976562 76.46875 62.34375 76.484375 61.714844 76.507812 C 61.09375 76.527344 60.550781 76.539062 60.082031 76.554688 C 59.617188 76.5625 59.332031 76.566406 59.234375 76.566406 C 58.640625 76.566406 58.210938 76.699219 57.957031 76.96875 C 57.699219 77.234375 57.570312 77.488281 57.570312 77.726562 C 57.570312 78.21875 57.765625 78.585938 58.164062 78.828125 C 58.5 79.027344 58.773438 79.144531 58.980469 79.171875 C 59.191406 79.199219 59.480469 79.234375 59.855469 79.273438 C 60.09375 79.292969 60.46875 79.300781 60.976562 79.300781 C 61.480469 79.300781 62.03125 79.296875 62.628906 79.289062 C 63.222656 79.277344 63.792969 79.269531 64.335938 79.261719 C 64.882812 79.246094 65.335938 79.238281 65.703125 79.226562 C 66.070312 79.21875 66.265625 79.214844 66.289062 79.214844 C 66.425781 79.214844 66.515625 79.273438 66.554688 79.394531 Z M 66.554688 79.394531 "/>
<g clip-path="url(#clip13)" clip-rule="nonzero">
<path style=" stroke:none;fill-rule:nonzero;fill:rgb(13.333334%,13.333334%,13.333334%);fill-opacity:1;" d="M 52.238281 82.339844 L 52.238281 83.976562 C 52.238281 84.125 52.242188 84.351562 52.253906 84.65625 C 52.261719 84.964844 52.277344 85.296875 52.296875 85.65625 C 52.316406 86.03125 52.332031 86.347656 52.34375 86.613281 L 52.355469 87.019531 L 52.355469 87.042969 C 52.355469 87.429688 52.230469 87.753906 51.96875 88.011719 C 51.714844 88.265625 51.390625 88.398438 51.003906 88.398438 L 34.898438 88.398438 C 34.4375 88.398438 34.0625 88.242188 33.777344 87.933594 C 33.492188 87.628906 33.367188 87.246094 33.398438 86.785156 L 34.511719 86.863281 L 33.398438 86.820312 C 33.457031 85.34375 33.492188 83.863281 33.5 82.378906 L 33.546875 77.863281 C 33.566406 76.375 33.621094 74.878906 33.710938 73.371094 C 33.796875 71.960938 33.734375 70.558594 33.527344 69.167969 C 33.453125 68.710938 33.570312 68.304688 33.886719 67.949219 C 34.1875 67.609375 34.566406 67.441406 35.019531 67.441406 L 50.882812 67.441406 C 51.191406 67.441406 51.464844 67.53125 51.703125 67.707031 C 51.929688 67.878906 52.085938 68.105469 52.179688 68.382812 L 52.238281 68.554688 L 52.238281 68.738281 C 52.238281 68.777344 52.230469 68.890625 52.222656 69.074219 C 52.210938 69.253906 52.195312 69.4375 52.171875 69.617188 L 51.0625 69.480469 L 52.179688 69.480469 C 52.179688 69.601562 52.167969 69.847656 52.148438 70.226562 C 52.128906 70.574219 52.113281 70.933594 52.105469 71.308594 C 52.09375 71.6875 52.089844 71.96875 52.089844 72.160156 C 52.089844 72.332031 52.097656 72.550781 52.117188 72.8125 C 52.136719 73.078125 52.15625 73.3125 52.183594 73.519531 L 52.238281 73.933594 L 52.238281 74.003906 C 52.238281 74.417969 52.09375 74.753906 51.796875 75.015625 C 51.539062 75.246094 51.226562 75.359375 50.855469 75.359375 L 50.839844 75.359375 L 50.246094 75.34375 C 49.867188 75.332031 49.386719 75.328125 48.800781 75.328125 L 46.910156 75.328125 C 46.257812 75.328125 45.65625 75.339844 45.105469 75.359375 C 44.570312 75.378906 44.164062 75.402344 43.878906 75.441406 C 43.695312 75.464844 43.5 75.523438 43.292969 75.617188 C 43.324219 75.601562 43.355469 75.574219 43.386719 75.53125 C 43.398438 75.507812 43.410156 75.488281 43.417969 75.46875 L 43.421875 75.46875 C 43.433594 75.308594 43.390625 75.179688 43.285156 75.082031 C 43.351562 75.144531 43.414062 75.1875 43.480469 75.21875 L 43.023438 76.238281 L 43.246094 75.140625 C 43.285156 75.152344 43.539062 75.164062 44.003906 75.183594 C 44.515625 75.199219 45.132812 75.210938 45.855469 75.210938 C 46.582031 75.210938 47.316406 75.207031 48.058594 75.195312 C 48.804688 75.183594 49.441406 75.179688 49.960938 75.179688 L 50.855469 75.179688 C 51.226562 75.179688 51.539062 75.292969 51.796875 75.523438 C 52.09375 75.785156 52.238281 76.121094 52.238281 76.535156 L 52.238281 80.078125 C 52.238281 80.492188 52.09375 80.828125 51.796875 81.089844 C 51.539062 81.316406 51.226562 81.433594 50.855469 81.433594 C 50.511719 81.433594 50.035156 81.425781 49.421875 81.417969 C 48.8125 81.40625 48.179688 81.390625 47.53125 81.371094 C 46.890625 81.351562 46.3125 81.335938 45.800781 81.328125 C 45.292969 81.316406 44.953125 81.3125 44.78125 81.3125 L 44.78125 80.195312 L 44.894531 81.308594 C 44.65625 81.332031 44.378906 81.34375 44.050781 81.34375 C 43.878906 81.34375 43.714844 81.367188 43.5625 81.414062 C 43.609375 81.398438 43.644531 81.367188 43.667969 81.320312 C 43.652344 81.34375 43.648438 81.359375 43.644531 81.367188 C 43.644531 81.367188 43.644531 81.363281 43.648438 81.355469 C 43.65625 81.320312 43.660156 81.28125 43.652344 81.230469 C 43.640625 81.113281 43.601562 81.023438 43.53125 80.953125 C 43.648438 81.066406 43.765625 81.136719 43.890625 81.167969 L 43.621094 82.25 L 43.839844 81.15625 C 43.96875 81.179688 44.300781 81.195312 44.84375 81.195312 C 45.441406 81.195312 46.128906 81.179688 46.898438 81.148438 L 49.160156 81.058594 C 49.878906 81.03125 50.421875 81.003906 50.796875 80.988281 L 50.824219 80.984375 L 50.855469 80.984375 C 51.226562 80.984375 51.539062 81.097656 51.796875 81.328125 C 52.09375 81.589844 52.238281 81.925781 52.238281 82.339844 Z M 50.003906 82.339844 C 50.003906 82.59375 50.109375 82.8125 50.3125 82.996094 C 50.480469 83.144531 50.660156 83.21875 50.855469 83.21875 L 50.855469 82.101562 L 50.914062 83.214844 C 50.53125 83.234375 49.976562 83.261719 49.246094 83.289062 L 46.980469 83.378906 C 46.183594 83.410156 45.46875 83.425781 44.84375 83.425781 C 44.152344 83.425781 43.671875 83.398438 43.402344 83.34375 L 43.378906 83.339844 L 43.351562 83.332031 C 42.839844 83.207031 42.386719 82.949219 41.984375 82.5625 C 41.65625 82.25 41.472656 81.875 41.429688 81.445312 C 41.394531 81.066406 41.476562 80.695312 41.671875 80.320312 C 41.933594 79.796875 42.34375 79.449219 42.90625 79.277344 C 43.269531 79.164062 43.652344 79.109375 44.050781 79.109375 C 44.304688 79.109375 44.507812 79.101562 44.671875 79.085938 L 44.726562 79.082031 L 44.78125 79.082031 C 44.96875 79.082031 45.320312 79.085938 45.84375 79.09375 C 46.367188 79.105469 46.949219 79.121094 47.597656 79.140625 C 48.238281 79.160156 48.859375 79.171875 49.457031 79.183594 C 50.058594 79.195312 50.523438 79.199219 50.855469 79.199219 C 50.660156 79.199219 50.480469 79.273438 50.3125 79.421875 C 50.109375 79.605469 50.003906 79.820312 50.003906 80.078125 L 50.003906 76.535156 C 50.003906 76.789062 50.109375 77.007812 50.3125 77.191406 C 50.480469 77.339844 50.660156 77.414062 50.855469 77.414062 L 49.960938 77.414062 C 49.449219 77.414062 48.824219 77.417969 48.085938 77.425781 C 47.335938 77.4375 46.59375 77.441406 45.855469 77.441406 C 45.105469 77.441406 44.460938 77.433594 43.921875 77.414062 C 43.335938 77.390625 42.964844 77.363281 42.808594 77.332031 L 42.683594 77.308594 L 42.570312 77.257812 C 42.277344 77.128906 42.007812 76.945312 41.757812 76.707031 C 41.332031 76.3125 41.148438 75.816406 41.203125 75.21875 C 41.242188 74.855469 41.359375 74.53125 41.558594 74.25 C 41.761719 73.957031 42.035156 73.738281 42.375 73.582031 C 42.78125 73.398438 43.191406 73.277344 43.601562 73.226562 C 43.953125 73.179688 44.425781 73.148438 45.023438 73.128906 C 45.605469 73.105469 46.230469 73.097656 46.910156 73.097656 L 48.800781 73.097656 C 49.40625 73.097656 49.90625 73.101562 50.300781 73.113281 L 50.882812 73.128906 L 50.855469 74.242188 L 50.855469 73.128906 C 50.660156 73.128906 50.480469 73.199219 50.3125 73.347656 C 50.109375 73.53125 50.003906 73.75 50.003906 74.003906 L 51.121094 74.003906 L 50.015625 74.148438 L 49.96875 73.808594 C 49.9375 73.558594 49.910156 73.277344 49.890625 72.964844 C 49.867188 72.652344 49.855469 72.382812 49.855469 72.160156 C 49.855469 71.953125 49.863281 71.648438 49.871094 71.253906 C 49.882812 70.855469 49.898438 70.472656 49.917969 70.105469 C 49.9375 69.765625 49.945312 69.558594 49.945312 69.480469 L 49.945312 69.410156 L 49.957031 69.34375 C 49.972656 69.207031 49.984375 69.070312 49.992188 68.933594 C 50 68.855469 50.003906 68.796875 50.003906 68.753906 C 50.003906 68.738281 50.003906 68.722656 50.003906 68.714844 C 50.007812 68.710938 50.007812 68.710938 50.007812 68.710938 C 50.003906 68.71875 50.003906 68.726562 50.003906 68.738281 L 51.121094 68.738281 L 50.0625 69.089844 C 50.117188 69.25 50.21875 69.386719 50.363281 69.496094 C 50.523438 69.613281 50.695312 69.671875 50.882812 69.671875 L 35.019531 69.671875 C 35.234375 69.671875 35.414062 69.59375 35.554688 69.433594 C 35.710938 69.257812 35.773438 69.058594 35.734375 68.839844 C 35.964844 70.386719 36.035156 71.941406 35.941406 73.503906 C 35.851562 74.976562 35.796875 76.4375 35.777344 77.886719 L 35.734375 82.390625 C 35.722656 83.902344 35.6875 85.40625 35.628906 86.910156 L 35.628906 86.945312 C 35.628906 86.890625 35.625 86.832031 35.605469 86.765625 C 35.570312 86.632812 35.507812 86.519531 35.410156 86.417969 C 35.316406 86.3125 35.207031 86.242188 35.082031 86.199219 C 35.015625 86.175781 34.953125 86.164062 34.898438 86.164062 L 51.003906 86.164062 C 50.773438 86.164062 50.570312 86.253906 50.390625 86.433594 C 50.214844 86.609375 50.125 86.8125 50.125 87.042969 L 51.242188 87.042969 L 50.125 87.085938 L 50.109375 86.699219 C 50.101562 86.445312 50.085938 86.140625 50.066406 85.777344 C 50.046875 85.402344 50.03125 85.050781 50.023438 84.726562 C 50.011719 84.398438 50.003906 84.148438 50.003906 83.976562 Z M 50.003906 82.339844 "/>
</g>
<path style=" stroke:none;fill-rule:nonzero;fill:rgb(100%,100%,100%);fill-opacity:1;" d="M 51.121094 82.339844 C 51.121094 82.597656 51.121094 82.878906 51.121094 83.1875 C 51.121094 83.492188 51.121094 83.757812 51.121094 83.972656 C 51.121094 84.132812 51.125 84.375 51.136719 84.695312 C 51.148438 85.011719 51.164062 85.351562 51.183594 85.71875 C 51.199219 86.085938 51.210938 86.398438 51.222656 86.652344 C 51.234375 86.914062 51.242188 87.039062 51.242188 87.039062 C 51.242188 87.199219 51.160156 87.28125 51.003906 87.28125 L 34.902344 87.28125 C 34.621094 87.28125 34.492188 87.140625 34.515625 86.859375 C 34.570312 85.378906 34.605469 83.886719 34.617188 82.386719 C 34.625 80.886719 34.640625 79.378906 34.660156 77.875 C 34.679688 76.40625 34.730469 74.929688 34.820312 73.441406 C 34.914062 71.953125 34.851562 70.472656 34.628906 69 C 34.609375 68.886719 34.640625 68.785156 34.722656 68.695312 C 34.800781 68.605469 34.902344 68.558594 35.023438 68.558594 L 50.882812 68.558594 C 51.003906 68.558594 51.082031 68.617188 51.121094 68.734375 C 51.121094 68.757812 51.117188 68.847656 51.109375 69.007812 C 51.097656 69.164062 51.082031 69.320312 51.0625 69.480469 C 51.0625 69.578125 51.050781 69.808594 51.027344 70.167969 C 51.011719 70.523438 50.996094 70.894531 50.988281 71.28125 C 50.980469 71.667969 50.976562 71.960938 50.976562 72.160156 C 50.976562 72.355469 50.984375 72.597656 51.003906 72.886719 C 51.023438 73.175781 51.046875 73.4375 51.074219 73.667969 C 51.105469 73.894531 51.121094 74.007812 51.121094 74.007812 C 51.121094 74.164062 51.03125 74.242188 50.855469 74.242188 C 50.855469 74.242188 50.660156 74.238281 50.273438 74.226562 C 49.890625 74.21875 49.398438 74.214844 48.800781 74.214844 C 48.207031 74.214844 47.574219 74.214844 46.910156 74.214844 C 46.246094 74.214844 45.628906 74.226562 45.0625 74.246094 C 44.496094 74.265625 44.058594 74.292969 43.742188 74.332031 C 43.445312 74.375 43.140625 74.464844 42.828125 74.601562 C 42.523438 74.738281 42.347656 74.988281 42.308594 75.347656 C 42.289062 75.566406 42.359375 75.75 42.515625 75.902344 C 42.675781 76.046875 42.84375 76.160156 43.027344 76.234375 C 43.125 76.257812 43.4375 76.277344 43.960938 76.300781 C 44.492188 76.320312 45.121094 76.328125 45.855469 76.328125 C 46.589844 76.328125 47.324219 76.324219 48.070312 76.3125 C 48.816406 76.300781 49.445312 76.292969 49.960938 76.292969 C 50.476562 76.292969 50.773438 76.292969 50.855469 76.292969 C 51.03125 76.292969 51.121094 76.375 51.121094 76.535156 L 51.121094 79.007812 C 51.121094 79.226562 51.121094 79.414062 51.121094 79.574219 C 51.121094 79.730469 51.121094 79.898438 51.121094 80.074219 C 51.121094 80.234375 51.03125 80.3125 50.855469 80.3125 C 50.515625 80.3125 50.046875 80.308594 49.441406 80.300781 C 48.835938 80.292969 48.210938 80.277344 47.5625 80.261719 C 46.917969 80.238281 46.335938 80.222656 45.820312 80.214844 C 45.304688 80.199219 44.957031 80.195312 44.78125 80.195312 C 44.582031 80.21875 44.335938 80.226562 44.046875 80.226562 C 43.765625 80.226562 43.492188 80.265625 43.234375 80.347656 C 42.976562 80.425781 42.789062 80.585938 42.667969 80.820312 C 42.46875 81.199219 42.496094 81.511719 42.753906 81.761719 C 43.011719 82.011719 43.300781 82.171875 43.621094 82.246094 C 43.820312 82.289062 44.230469 82.308594 44.84375 82.308594 C 45.457031 82.308594 46.152344 82.292969 46.933594 82.265625 C 47.722656 82.238281 48.476562 82.207031 49.203125 82.179688 C 49.925781 82.152344 50.476562 82.125 50.855469 82.101562 C 51.03125 82.101562 51.121094 82.179688 51.121094 82.339844 Z M 51.121094 82.339844 "/>
<path style=" stroke:none;fill-rule:nonzero;fill:rgb(13.333334%,13.333334%,13.333334%);fill-opacity:1;" d="M 60.898438 97.667969 L 60.3125 97.667969 L 60.3125 94.683594 L 61.164062 94.683594 L 61.902344 96.820312 L 61.835938 96.84375 L 61.835938 96.773438 L 61.875 96.773438 L 61.875 96.84375 L 61.8125 96.820312 L 62.542969 94.683594 L 63.378906 94.683594 L 63.378906 97.667969 L 62.707031 97.667969 L 62.707031 95.71875 L 62.777344 95.71875 L 62.765625 95.789062 L 62.71875 95.78125 L 62.726562 95.710938 L 62.792969 95.734375 L 62.121094 97.667969 L 61.550781 97.667969 L 60.878906 95.734375 L 60.945312 95.710938 L 60.957031 95.78125 L 60.90625 95.789062 L 60.898438 95.71875 L 60.964844 95.71875 L 60.964844 97.667969 Z M 60.898438 97.527344 L 60.898438 97.597656 L 60.828125 97.597656 L 60.828125 95.660156 L 60.992188 95.632812 L 61.667969 97.574219 L 61.601562 97.597656 L 61.601562 97.527344 L 62.070312 97.527344 L 62.070312 97.597656 L 62.003906 97.574219 L 62.679688 95.632812 L 62.84375 95.660156 L 62.84375 97.597656 L 62.777344 97.597656 L 62.777344 97.527344 L 63.308594 97.527344 L 63.308594 97.597656 L 63.238281 97.597656 L 63.238281 94.753906 L 63.308594 94.753906 L 63.308594 94.824219 L 62.59375 94.824219 L 62.59375 94.753906 L 62.65625 94.777344 L 61.925781 96.914062 L 61.785156 96.914062 L 61.050781 94.777344 L 61.117188 94.753906 L 61.117188 94.824219 L 60.382812 94.824219 L 60.382812 94.753906 L 60.449219 94.753906 L 60.449219 97.597656 L 60.382812 97.597656 L 60.382812 97.527344 Z M 60.898438 97.527344 "/>
<path style=" stroke:none;fill-rule:nonzero;fill:rgb(13.333334%,13.333334%,13.333334%);fill-opacity:1;" d="M 66.652344 96.347656 L 66.652344 97.125 L 66.582031 97.125 L 66.582031 97.054688 L 68.007812 97.054688 L 68.007812 97.667969 L 65.949219 97.667969 L 65.949219 94.683594 L 67.976562 94.683594 L 67.976562 95.292969 L 66.582031 95.292969 L 66.582031 95.226562 L 66.652344 95.226562 L 66.652344 95.890625 L 66.582031 95.890625 L 66.582031 95.820312 L 67.8125 95.820312 L 67.8125 96.417969 L 66.582031 96.417969 L 66.582031 96.347656 Z M 66.511719 96.277344 L 67.742188 96.277344 L 67.742188 96.347656 L 67.671875 96.347656 L 67.671875 95.890625 L 67.742188 95.890625 L 67.742188 95.960938 L 66.511719 95.960938 L 66.511719 95.15625 L 67.90625 95.15625 L 67.90625 95.226562 L 67.835938 95.226562 L 67.835938 94.753906 L 67.90625 94.753906 L 67.90625 94.824219 L 66.019531 94.824219 L 66.019531 94.753906 L 66.089844 94.753906 L 66.089844 97.597656 L 66.019531 97.597656 L 66.019531 97.527344 L 67.9375 97.527344 L 67.9375 97.597656 L 67.867188 97.597656 L 67.867188 97.125 L 67.9375 97.125 L 67.9375 97.195312 L 66.511719 97.195312 Z M 66.511719 96.277344 "/>
<path style=" stroke:none;fill-rule:nonzero;fill:rgb(13.333334%,13.333334%,13.333334%);fill-opacity:1;" d="M 70.976562 97.667969 L 70.363281 97.667969 L 70.363281 94.683594 L 71.117188 94.683594 L 72.277344 96.546875 L 72.21875 96.585938 L 72.207031 96.515625 L 72.257812 96.507812 L 72.269531 96.578125 L 72.199219 96.578125 L 72.199219 94.683594 L 72.878906 94.683594 L 72.878906 97.667969 L 72.195312 97.667969 L 70.96875 95.679688 L 71.027344 95.640625 L 71.039062 95.710938 L 70.988281 95.71875 L 70.976562 95.648438 L 71.046875 95.648438 L 71.046875 97.667969 Z M 70.976562 97.527344 L 70.976562 97.597656 L 70.910156 97.597656 L 70.910156 95.589844 L 71.0625 95.566406 L 72.292969 97.558594 L 72.234375 97.597656 L 72.234375 97.527344 L 72.808594 97.527344 L 72.808594 97.597656 L 72.738281 97.597656 L 72.738281 94.753906 L 72.808594 94.753906 L 72.808594 94.824219 L 72.269531 94.824219 L 72.269531 94.753906 L 72.339844 94.753906 L 72.339844 96.636719 L 72.183594 96.660156 L 71.019531 94.792969 L 71.078125 94.753906 L 71.078125 94.824219 L 70.433594 94.824219 L 70.433594 94.753906 L 70.503906 94.753906 L 70.503906 97.597656 L 70.433594 97.597656 L 70.433594 97.527344 Z M 70.976562 97.527344 "/>
<path style=" stroke:none;fill-rule:nonzero;fill:rgb(13.333334%,13.333334%,13.333334%);fill-opacity:1;" d="M 76.410156 97.707031 C 76.207031 97.707031 76.023438 97.679688 75.863281 97.632812 C 75.703125 97.578125 75.566406 97.511719 75.457031 97.429688 C 75.351562 97.34375 75.265625 97.25 75.207031 97.144531 L 75.179688 97.105469 L 75.542969 96.667969 L 75.660156 96.667969 L 75.679688 96.695312 C 75.761719 96.816406 75.863281 96.90625 75.984375 96.976562 C 76.105469 97.046875 76.246094 97.082031 76.410156 97.082031 C 76.542969 97.082031 76.644531 97.054688 76.707031 97.003906 C 76.765625 96.953125 76.796875 96.882812 76.796875 96.792969 C 76.796875 96.738281 76.785156 96.691406 76.769531 96.65625 C 76.75 96.625 76.71875 96.59375 76.671875 96.566406 C 76.621094 96.539062 76.550781 96.511719 76.457031 96.492188 L 76.09375 96.40625 C 75.824219 96.347656 75.625 96.242188 75.488281 96.097656 C 75.351562 95.949219 75.28125 95.757812 75.28125 95.523438 C 75.28125 95.347656 75.328125 95.191406 75.414062 95.058594 C 75.5 94.925781 75.628906 94.824219 75.792969 94.75 C 75.957031 94.679688 76.148438 94.644531 76.375 94.644531 C 76.601562 94.644531 76.796875 94.675781 76.960938 94.734375 C 77.128906 94.796875 77.269531 94.890625 77.386719 95.019531 L 77.421875 95.0625 L 77.089844 95.515625 L 76.976562 95.515625 L 76.953125 95.496094 C 76.882812 95.417969 76.796875 95.359375 76.703125 95.320312 C 76.609375 95.28125 76.5 95.261719 76.375 95.261719 C 76.234375 95.261719 76.128906 95.285156 76.0625 95.332031 C 76.03125 95.355469 76.007812 95.378906 75.992188 95.40625 C 75.976562 95.433594 75.972656 95.464844 75.972656 95.5 C 75.972656 95.570312 75.992188 95.625 76.035156 95.664062 C 76.082031 95.707031 76.167969 95.746094 76.292969 95.769531 L 76.667969 95.847656 C 76.957031 95.910156 77.167969 96.015625 77.304688 96.167969 C 77.441406 96.320312 77.507812 96.515625 77.507812 96.757812 C 77.507812 96.949219 77.46875 97.113281 77.386719 97.257812 C 77.300781 97.402344 77.175781 97.511719 77.007812 97.589844 C 76.84375 97.667969 76.644531 97.707031 76.410156 97.707031 Z M 76.410156 97.566406 C 76.625 97.566406 76.804688 97.53125 76.949219 97.464844 C 77.089844 97.398438 77.195312 97.304688 77.265625 97.1875 C 77.335938 97.066406 77.371094 96.921875 77.371094 96.757812 C 77.371094 96.550781 77.3125 96.386719 77.203125 96.257812 C 77.085938 96.132812 76.898438 96.039062 76.636719 95.984375 L 76.265625 95.90625 C 76.113281 95.875 76.003906 95.828125 75.9375 95.765625 C 75.867188 95.699219 75.832031 95.609375 75.832031 95.5 C 75.832031 95.441406 75.84375 95.386719 75.871094 95.339844 C 75.898438 95.292969 75.933594 95.25 75.984375 95.21875 C 76.074219 95.15625 76.203125 95.125 76.375 95.125 C 76.515625 95.125 76.644531 95.144531 76.757812 95.191406 C 76.867188 95.238281 76.96875 95.304688 77.054688 95.398438 L 77.007812 95.445312 L 77.007812 95.375 L 77.054688 95.375 L 77.054688 95.445312 L 77 95.40625 L 77.277344 95.023438 L 77.332031 95.066406 L 77.28125 95.113281 C 77.179688 95 77.058594 94.917969 76.914062 94.867188 C 76.765625 94.8125 76.585938 94.78125 76.375 94.78125 C 76.167969 94.78125 75.996094 94.816406 75.851562 94.878906 C 75.710938 94.941406 75.601562 95.027344 75.53125 95.136719 C 75.457031 95.246094 75.421875 95.375 75.421875 95.523438 C 75.421875 95.722656 75.476562 95.882812 75.589844 96.003906 C 75.707031 96.128906 75.886719 96.21875 76.125 96.273438 L 76.492188 96.355469 C 76.59375 96.382812 76.679688 96.410156 76.742188 96.449219 C 76.808594 96.488281 76.859375 96.535156 76.890625 96.589844 C 76.917969 96.644531 76.933594 96.714844 76.933594 96.792969 C 76.933594 96.925781 76.886719 97.03125 76.796875 97.109375 C 76.707031 97.183594 76.578125 97.222656 76.410156 97.222656 C 76.222656 97.222656 76.054688 97.179688 75.914062 97.101562 C 75.773438 97.019531 75.65625 96.910156 75.566406 96.773438 L 75.625 96.734375 L 75.625 96.804688 L 75.574219 96.804688 L 75.574219 96.734375 L 75.628906 96.78125 L 75.320312 97.15625 L 75.265625 97.113281 L 75.328125 97.078125 C 75.375 97.164062 75.449219 97.246094 75.542969 97.316406 C 75.640625 97.390625 75.761719 97.453125 75.90625 97.496094 C 76.054688 97.542969 76.222656 97.566406 76.410156 97.566406 Z M 76.410156 97.566406 "/>
<path style=" stroke:none;fill-rule:nonzero;fill:rgb(13.333334%,13.333334%,13.333334%);fill-opacity:1;" d="M 83.832031 97.667969 L 83.148438 97.667969 L 82.464844 94.683594 L 83.167969 94.683594 L 83.609375 96.738281 L 83.539062 96.753906 L 83.539062 96.683594 L 83.589844 96.683594 L 83.589844 96.753906 L 83.523438 96.738281 L 84.042969 94.683594 L 84.632812 94.683594 L 85.164062 96.734375 L 85.097656 96.753906 L 85.097656 96.683594 L 85.148438 96.683594 L 85.148438 96.753906 L 85.078125 96.738281 L 85.523438 94.683594 L 86.207031 94.683594 L 85.527344 97.667969 L 84.785156 97.667969 L 84.273438 95.78125 L 84.34375 95.761719 L 84.34375 95.832031 L 84.300781 95.832031 L 84.300781 95.761719 L 84.367188 95.78125 L 83.882812 97.667969 Z M 83.832031 97.527344 L 83.832031 97.597656 L 83.765625 97.578125 L 84.246094 95.691406 L 84.394531 95.691406 L 84.90625 97.578125 L 84.839844 97.597656 L 84.839844 97.527344 L 85.46875 97.527344 L 85.46875 97.597656 L 85.402344 97.582031 L 86.050781 94.738281 L 86.117188 94.753906 L 86.117188 94.824219 L 85.578125 94.824219 L 85.578125 94.753906 L 85.644531 94.769531 L 85.203125 96.824219 L 85.042969 96.824219 L 84.511719 94.769531 L 84.578125 94.753906 L 84.578125 94.824219 L 84.097656 94.824219 L 84.097656 94.753906 L 84.167969 94.769531 L 83.644531 96.824219 L 83.484375 96.824219 L 83.042969 94.769531 L 83.113281 94.753906 L 83.113281 94.824219 L 82.550781 94.824219 L 82.550781 94.753906 L 82.617188 94.738281 L 83.269531 97.582031 L 83.203125 97.597656 L 83.203125 97.527344 Z M 83.832031 97.527344 "/>
<path style=" stroke:none;fill-rule:nonzero;fill:rgb(13.333334%,13.333334%,13.333334%);fill-opacity:1;" d="M 89.164062 96.347656 L 89.164062 97.125 L 89.097656 97.125 L 89.097656 97.054688 L 90.519531 97.054688 L 90.519531 97.667969 L 88.464844 97.667969 L 88.464844 94.683594 L 90.492188 94.683594 L 90.492188 95.292969 L 89.097656 95.292969 L 89.097656 95.226562 L 89.164062 95.226562 L 89.164062 95.890625 L 89.097656 95.890625 L 89.097656 95.820312 L 90.324219 95.820312 L 90.324219 96.417969 L 89.097656 96.417969 L 89.097656 96.347656 Z M 89.027344 96.277344 L 90.253906 96.277344 L 90.253906 96.347656 L 90.183594 96.347656 L 90.183594 95.890625 L 90.253906 95.890625 L 90.253906 95.960938 L 89.027344 95.960938 L 89.027344 95.15625 L 90.421875 95.15625 L 90.421875 95.226562 L 90.351562 95.226562 L 90.351562 94.753906 L 90.421875 94.753906 L 90.421875 94.824219 L 88.535156 94.824219 L 88.535156 94.753906 L 88.601562 94.753906 L 88.601562 97.597656 L 88.535156 97.597656 L 88.535156 97.527344 L 90.453125 97.527344 L 90.453125 97.597656 L 90.382812 97.597656 L 90.382812 97.125 L 90.453125 97.125 L 90.453125 97.195312 L 89.027344 97.195312 Z M 89.027344 96.277344 "/>
<path style=" stroke:none;fill-rule:nonzero;fill:rgb(13.333334%,13.333334%,13.333334%);fill-opacity:1;" d="M 95.304688 97.667969 L 94.664062 97.667969 L 94.4375 96.964844 L 94.5 96.941406 L 94.5 97.011719 L 93.414062 97.011719 L 93.414062 96.941406 L 93.480469 96.964844 L 93.25 97.667969 L 92.523438 97.667969 L 93.554688 94.683594 L 94.375 94.683594 L 95.402344 97.667969 Z M 95.304688 97.527344 L 95.304688 97.597656 L 95.242188 97.621094 L 94.257812 94.777344 L 94.324219 94.753906 L 94.324219 94.824219 L 93.605469 94.824219 L 93.605469 94.753906 L 93.667969 94.777344 L 92.6875 97.621094 L 92.621094 97.597656 L 92.621094 97.527344 L 93.199219 97.527344 L 93.199219 97.597656 L 93.132812 97.574219 L 93.363281 96.871094 L 94.550781 96.871094 L 94.78125 97.574219 L 94.714844 97.597656 L 94.714844 97.527344 Z M 93.996094 95.371094 L 93.628906 96.492188 L 93.5625 96.46875 L 93.5625 96.398438 L 94.34375 96.398438 L 94.34375 96.46875 L 94.277344 96.492188 L 93.914062 95.371094 L 93.980469 95.347656 L 93.980469 95.417969 L 93.929688 95.417969 L 93.929688 95.347656 Z M 93.878906 95.277344 L 94.027344 95.277344 L 94.441406 96.539062 L 93.46875 96.539062 L 93.863281 95.328125 Z M 93.878906 95.277344 "/>
<path style=" stroke:none;fill-rule:nonzero;fill:rgb(13.333334%,13.333334%,13.333334%);fill-opacity:1;" d="M 97.621094 97.597656 L 97.621094 94.683594 L 98.828125 94.683594 C 99.140625 94.683594 99.378906 94.757812 99.542969 94.90625 C 99.707031 95.054688 99.789062 95.257812 99.789062 95.519531 C 99.789062 95.707031 99.742188 95.863281 99.644531 95.988281 C 99.546875 96.105469 99.40625 96.199219 99.21875 96.261719 L 99.199219 96.195312 L 99.265625 96.195312 L 99.265625 96.238281 L 99.199219 96.238281 L 99.222656 96.171875 C 99.328125 96.214844 99.40625 96.28125 99.472656 96.367188 C 99.53125 96.449219 99.585938 96.570312 99.636719 96.726562 L 99.953125 97.667969 L 99.226562 97.667969 L 98.933594 96.769531 C 98.90625 96.691406 98.878906 96.632812 98.847656 96.589844 C 98.820312 96.554688 98.785156 96.527344 98.742188 96.507812 C 98.695312 96.492188 98.632812 96.484375 98.550781 96.484375 L 98.25 96.484375 L 98.25 96.414062 L 98.320312 96.414062 L 98.320312 97.667969 L 97.621094 97.667969 Z M 97.757812 97.597656 L 97.691406 97.597656 L 97.691406 97.527344 L 98.25 97.527344 L 98.25 97.597656 L 98.179688 97.597656 L 98.179688 96.34375 L 98.550781 96.34375 C 98.648438 96.34375 98.726562 96.355469 98.792969 96.378906 C 98.859375 96.40625 98.914062 96.449219 98.957031 96.507812 C 98.996094 96.558594 99.035156 96.632812 99.066406 96.726562 L 99.34375 97.574219 L 99.277344 97.597656 L 99.277344 97.527344 L 99.855469 97.527344 L 99.855469 97.597656 L 99.789062 97.617188 L 99.503906 96.769531 C 99.457031 96.625 99.40625 96.519531 99.359375 96.449219 C 99.308594 96.382812 99.246094 96.332031 99.167969 96.300781 L 99.128906 96.28125 L 99.128906 96.144531 L 99.175781 96.128906 C 99.335938 96.074219 99.457031 95.996094 99.535156 95.898438 C 99.609375 95.800781 99.652344 95.675781 99.652344 95.519531 C 99.652344 95.300781 99.582031 95.132812 99.449219 95.007812 C 99.3125 94.886719 99.105469 94.824219 98.828125 94.824219 L 97.691406 94.824219 L 97.691406 94.753906 L 97.757812 94.753906 Z M 98.761719 95.898438 C 98.878906 95.898438 98.964844 95.871094 99.019531 95.820312 C 99.074219 95.769531 99.097656 95.691406 99.097656 95.585938 C 99.097656 95.476562 99.074219 95.398438 99.019531 95.347656 C 98.964844 95.292969 98.878906 95.269531 98.761719 95.269531 L 98.25 95.269531 L 98.25 95.199219 L 98.320312 95.199219 L 98.320312 95.96875 L 98.25 95.96875 L 98.25 95.898438 Z M 98.761719 96.035156 L 98.179688 96.035156 L 98.179688 95.128906 L 98.761719 95.128906 C 98.917969 95.128906 99.035156 95.167969 99.117188 95.246094 C 99.199219 95.324219 99.238281 95.4375 99.238281 95.585938 C 99.238281 95.734375 99.199219 95.847656 99.117188 95.921875 C 99.035156 96 98.917969 96.035156 98.761719 96.035156 Z M 98.761719 96.035156 "/>
<path style=" stroke:none;fill-rule:nonzero;fill:rgb(13.333334%,13.333334%,13.333334%);fill-opacity:1;" d="M 60.898438 97.597656 L 60.378906 97.597656 L 60.378906 94.757812 L 61.117188 94.757812 L 61.832031 96.84375 L 61.878906 96.84375 L 62.59375 94.757812 L 63.304688 94.757812 L 63.304688 97.597656 L 62.777344 97.597656 L 62.777344 95.714844 L 62.726562 95.710938 L 62.070312 97.597656 L 61.597656 97.597656 L 60.945312 95.710938 L 60.898438 95.714844 Z M 60.898438 97.597656 "/>
<path style=" stroke:none;fill-rule:nonzero;fill:rgb(13.333334%,13.333334%,13.333334%);fill-opacity:1;" d="M 66.585938 96.351562 L 66.585938 97.121094 L 67.9375 97.121094 L 67.9375 97.597656 L 66.015625 97.597656 L 66.015625 94.757812 L 67.902344 94.757812 L 67.902344 95.222656 L 66.585938 95.222656 L 66.585938 95.890625 L 67.738281 95.890625 L 67.738281 96.351562 Z M 66.585938 96.351562 "/>
<path style=" stroke:none;fill-rule:nonzero;fill:rgb(13.333334%,13.333334%,13.333334%);fill-opacity:1;" d="M 70.976562 97.597656 L 70.429688 97.597656 L 70.429688 94.757812 L 71.078125 94.757812 L 72.21875 96.582031 L 72.273438 96.578125 L 72.273438 94.757812 L 72.8125 94.757812 L 72.8125 97.597656 L 72.230469 97.597656 L 71.023438 95.644531 L 70.976562 95.648438 Z M 70.976562 97.597656 "/>
<path style=" stroke:none;fill-rule:nonzero;fill:rgb(13.333334%,13.333334%,13.333334%);fill-opacity:1;" d="M 76.410156 97.636719 C 76.214844 97.636719 76.039062 97.613281 75.886719 97.5625 C 75.726562 97.515625 75.601562 97.453125 75.5 97.375 C 75.394531 97.296875 75.316406 97.207031 75.265625 97.109375 L 75.578125 96.738281 L 75.625 96.738281 C 75.707031 96.863281 75.816406 96.960938 75.945312 97.035156 C 76.078125 97.113281 76.234375 97.148438 76.410156 97.148438 C 76.5625 97.148438 76.675781 97.121094 76.75 97.054688 C 76.828125 96.996094 76.863281 96.90625 76.863281 96.796875 C 76.863281 96.726562 76.851562 96.667969 76.824219 96.621094 C 76.800781 96.578125 76.761719 96.542969 76.703125 96.507812 C 76.648438 96.476562 76.570312 96.445312 76.476562 96.421875 L 76.113281 96.34375 C 75.851562 96.285156 75.660156 96.191406 75.539062 96.054688 C 75.414062 95.917969 75.351562 95.742188 75.351562 95.523438 C 75.351562 95.363281 75.390625 95.222656 75.472656 95.101562 C 75.550781 94.980469 75.667969 94.882812 75.816406 94.816406 C 75.972656 94.75 76.15625 94.714844 76.371094 94.714844 C 76.59375 94.714844 76.78125 94.746094 76.9375 94.804688 C 77.09375 94.863281 77.226562 94.949219 77.332031 95.0625 L 77.050781 95.449219 L 77.003906 95.449219 C 76.925781 95.367188 76.832031 95.304688 76.726562 95.261719 C 76.621094 95.21875 76.503906 95.195312 76.371094 95.195312 C 76.21875 95.195312 76.105469 95.222656 76.023438 95.277344 C 75.945312 95.328125 75.90625 95.40625 75.90625 95.503906 C 75.90625 95.59375 75.929688 95.664062 75.984375 95.714844 C 76.042969 95.769531 76.140625 95.808594 76.277344 95.835938 L 76.652344 95.917969 C 76.925781 95.976562 77.125 96.074219 77.25 96.214844 C 77.375 96.355469 77.4375 96.535156 77.4375 96.757812 C 77.4375 96.933594 77.398438 97.089844 77.324219 97.222656 C 77.25 97.351562 77.132812 97.453125 76.976562 97.53125 C 76.820312 97.601562 76.632812 97.636719 76.410156 97.636719 Z M 76.410156 97.636719 "/>
<path style=" stroke:none;fill-rule:nonzero;fill:rgb(13.333334%,13.333334%,13.333334%);fill-opacity:1;" d="M 83.828125 97.597656 L 83.199219 97.597656 L 82.554688 94.757812 L 83.113281 94.757812 L 83.539062 96.75 L 83.585938 96.75 L 84.101562 94.757812 L 84.582031 94.757812 L 85.101562 96.75 L 85.148438 96.75 L 85.582031 94.757812 L 86.121094 94.757812 L 85.46875 97.597656 L 84.839844 97.597656 L 84.339844 95.761719 L 84.300781 95.761719 Z M 83.828125 97.597656 "/>
<path style=" stroke:none;fill-rule:nonzero;fill:rgb(13.333334%,13.333334%,13.333334%);fill-opacity:1;" d="M 89.097656 96.351562 L 89.097656 97.121094 L 90.453125 97.121094 L 90.453125 97.597656 L 88.53125 97.597656 L 88.53125 94.757812 L 90.417969 94.757812 L 90.417969 95.222656 L 89.097656 95.222656 L 89.097656 95.890625 L 90.25 95.890625 L 90.25 96.351562 Z M 89.097656 96.351562 "/>
<path style=" stroke:none;fill-rule:nonzero;fill:rgb(13.333334%,13.333334%,13.333334%);fill-opacity:1;" d="M 95.304688 97.597656 L 94.710938 97.597656 L 94.5 96.941406 L 93.414062 96.941406 L 93.199219 97.597656 L 92.617188 97.597656 L 93.605469 94.757812 L 94.324219 94.757812 Z M 93.933594 95.351562 L 93.566406 96.46875 L 94.34375 96.46875 L 93.980469 95.351562 Z M 93.933594 95.351562 "/>
<path style=" stroke:none;fill-rule:nonzero;fill:rgb(13.333334%,13.333334%,13.333334%);fill-opacity:1;" d="M 97.6875 97.597656 L 97.6875 94.757812 L 98.828125 94.757812 C 99.121094 94.757812 99.347656 94.828125 99.492188 94.964844 C 99.644531 95.097656 99.71875 95.28125 99.71875 95.515625 C 99.71875 95.691406 99.675781 95.832031 99.585938 95.941406 C 99.5 96.054688 99.371094 96.140625 99.199219 96.195312 L 99.199219 96.238281 C 99.289062 96.277344 99.359375 96.335938 99.414062 96.410156 C 99.464844 96.488281 99.519531 96.601562 99.574219 96.75 L 99.851562 97.597656 L 99.28125 97.597656 L 99 96.75 C 98.96875 96.660156 98.933594 96.59375 98.898438 96.550781 C 98.863281 96.5 98.820312 96.464844 98.765625 96.441406 C 98.714844 96.421875 98.640625 96.410156 98.554688 96.410156 L 98.253906 96.410156 L 98.253906 97.597656 Z M 98.757812 95.96875 C 99.035156 95.96875 99.171875 95.84375 99.171875 95.589844 C 99.171875 95.332031 99.035156 95.203125 98.757812 95.203125 L 98.253906 95.203125 L 98.253906 95.96875 Z M 98.757812 95.96875 "/>
</g>
</svg>